G04 EAGLE Gerber RS-274X export*
G75*
%MOMM*%
%FSLAX34Y34*%
%LPD*%
%INSolder paste bottom*%
%IPPOS*%
%AMOC8*
5,1,8,0,0,1.08239X$1,22.5*%
G01*
%ADD10R,1.000000X1.100000*%
%ADD11R,0.980000X0.920000*%
%ADD12R,2.000000X2.000000*%
%ADD13R,0.800000X2.700000*%
%ADD14R,0.600000X0.400000*%
%ADD15R,0.930000X0.790000*%
%ADD16R,2.065000X0.626000*%
%ADD17C,0.626000*%
%ADD18R,1.020000X1.000000*%
%ADD19R,1.000000X1.020000*%
%ADD20R,0.540000X0.600000*%


D10*
X317500Y232800D03*
X317500Y249800D03*
D11*
X292100Y233550D03*
X292100Y249050D03*
D12*
X183100Y165100D03*
X147100Y165100D03*
D13*
X366600Y76200D03*
X344600Y76200D03*
D14*
X404200Y247800D03*
X404200Y234800D03*
X383200Y241300D03*
D15*
X355600Y249500D03*
X355600Y233100D03*
D16*
X153210Y82550D03*
D17*
X160405Y69850D02*
X146015Y69850D01*
X146015Y57150D02*
X160405Y57150D01*
X160405Y44450D02*
X146015Y44450D01*
X107985Y44450D02*
X93595Y44450D01*
X93595Y57150D02*
X107985Y57150D01*
X107985Y69850D02*
X93595Y69850D01*
X93595Y82550D02*
X107985Y82550D01*
D18*
X266700Y233710D03*
X266700Y248890D03*
X241300Y233710D03*
X241300Y248890D03*
D19*
X363190Y127000D03*
X348010Y127000D03*
D11*
X215900Y233550D03*
X215900Y249050D03*
D10*
X190500Y232800D03*
X190500Y249800D03*
X165100Y232800D03*
X165100Y249800D03*
X139700Y232800D03*
X139700Y249800D03*
X114300Y232800D03*
X114300Y249800D03*
X88900Y232800D03*
X88900Y249800D03*
X63500Y232800D03*
X63500Y249800D03*
D12*
X284700Y165100D03*
X248700Y165100D03*
X386300Y165100D03*
X350300Y165100D03*
D16*
X280210Y82550D03*
D17*
X287405Y69850D02*
X273015Y69850D01*
X273015Y57150D02*
X287405Y57150D01*
X287405Y44450D02*
X273015Y44450D01*
X234985Y44450D02*
X220595Y44450D01*
X220595Y57150D02*
X234985Y57150D01*
X234985Y69850D02*
X220595Y69850D01*
X220595Y82550D02*
X234985Y82550D01*
D11*
X38100Y233550D03*
X38100Y249050D03*
D20*
X93200Y152400D03*
X84600Y152400D03*
X93200Y177800D03*
X84600Y177800D03*
X55100Y177800D03*
X46500Y177800D03*
X55100Y152400D03*
X46500Y152400D03*
X55100Y127000D03*
X46500Y127000D03*
M02*
