G04 EAGLE Gerber RS-274X export*
G75*
%MOMM*%
%FSLAX34Y34*%
%LPD*%
%INSilk top*%
%IPPOS*%
%AMOC8*
5,1,8,0,0,1.08239X$1,22.5*%
G01*
%ADD10C,0.050800*%
%ADD11C,0.152400*%
%ADD12C,0.127000*%
%ADD13C,0.200000*%
%ADD14C,0.076200*%
%ADD15C,0.000000*%


D10*
X373951Y139501D02*
X373202Y140250D01*
X371703Y140250D01*
X370954Y139501D01*
X370954Y136503D01*
X371703Y135754D01*
X373202Y135754D01*
X373951Y136503D01*
X375558Y138751D02*
X377057Y140250D01*
X377057Y135754D01*
X378555Y135754D02*
X375558Y135754D01*
X380162Y138751D02*
X381660Y140250D01*
X381660Y135754D01*
X380162Y135754D02*
X383159Y135754D01*
D11*
X72390Y12700D02*
X29210Y12700D01*
X25400Y34290D02*
X29210Y38100D01*
X25400Y41910D01*
X25400Y59690D01*
X29210Y63500D01*
X25400Y67310D01*
X25400Y85090D01*
X29210Y88900D01*
X72390Y88900D02*
X76200Y85090D01*
X76200Y67310D01*
X72390Y63500D01*
X76200Y59690D01*
X76200Y41910D01*
X72390Y38100D01*
X76200Y34290D01*
X29210Y88900D02*
X25400Y92710D01*
X25400Y110490D01*
X29210Y114300D01*
X25400Y118110D01*
X25400Y135890D01*
X29210Y139700D01*
X76200Y92710D02*
X72390Y88900D01*
X76200Y92710D02*
X76200Y110490D01*
X72390Y114300D02*
X76200Y118110D01*
X72390Y114300D02*
X76200Y110490D01*
X76200Y118110D02*
X76200Y135890D01*
X72390Y139700D01*
X76200Y16510D02*
X72390Y12700D01*
X76200Y16510D02*
X76200Y34290D01*
X29210Y12700D02*
X25400Y16510D01*
X25400Y34290D01*
X29210Y266700D02*
X72390Y266700D01*
X29210Y266700D02*
X25400Y262890D01*
X72390Y266700D02*
X76200Y262890D01*
X72390Y241300D02*
X76200Y237490D01*
X72390Y215900D02*
X76200Y212090D01*
X72390Y190500D02*
X76200Y186690D01*
X72390Y165100D02*
X76200Y161290D01*
X25400Y237490D02*
X29210Y241300D01*
X29210Y215900D02*
X25400Y212090D01*
X29210Y190500D02*
X25400Y186690D01*
X29210Y165100D02*
X25400Y161290D01*
X25400Y143510D02*
X29210Y139700D01*
X29210Y165100D02*
X25400Y168910D01*
X29210Y190500D02*
X25400Y194310D01*
X29210Y215900D02*
X25400Y219710D01*
X29210Y241300D02*
X25400Y245110D01*
X76200Y143510D02*
X72390Y139700D01*
X72390Y165100D02*
X76200Y168910D01*
X72390Y190500D02*
X76200Y194310D01*
X72390Y215900D02*
X76200Y219710D01*
X72390Y241300D02*
X76200Y245110D01*
X25400Y161290D02*
X25400Y143510D01*
X25400Y168910D02*
X25400Y186690D01*
X25400Y194310D02*
X25400Y212090D01*
X25400Y219710D02*
X25400Y237490D01*
X25400Y245110D02*
X25400Y262890D01*
X76200Y161290D02*
X76200Y143510D01*
X76200Y168910D02*
X76200Y186690D01*
X76200Y194310D02*
X76200Y212090D01*
X76200Y219710D02*
X76200Y237490D01*
X76200Y245110D02*
X76200Y262890D01*
D12*
X80635Y24768D02*
X84449Y20955D01*
X80635Y24768D02*
X92075Y24768D01*
X92075Y20955D02*
X92075Y28582D01*
X92075Y46355D02*
X92075Y53982D01*
X84449Y53982D02*
X92075Y46355D01*
X84449Y53982D02*
X82542Y53982D01*
X80635Y52075D01*
X80635Y48262D01*
X82542Y46355D01*
X82542Y71755D02*
X80635Y73662D01*
X80635Y77475D01*
X82542Y79382D01*
X84449Y79382D01*
X86355Y77475D01*
X86355Y75568D01*
X86355Y77475D02*
X88262Y79382D01*
X90168Y79382D01*
X92075Y77475D01*
X92075Y73662D01*
X90168Y71755D01*
X92075Y102875D02*
X80635Y102875D01*
X86355Y97155D01*
X86355Y104782D01*
X80635Y122555D02*
X80635Y130182D01*
X80635Y122555D02*
X86355Y122555D01*
X84449Y126368D01*
X84449Y128275D01*
X86355Y130182D01*
X90168Y130182D01*
X92075Y128275D01*
X92075Y124462D01*
X90168Y122555D01*
X82542Y151768D02*
X80635Y155582D01*
X82542Y151768D02*
X86355Y147955D01*
X90168Y147955D01*
X92075Y149862D01*
X92075Y153675D01*
X90168Y155582D01*
X88262Y155582D01*
X86355Y153675D01*
X86355Y147955D01*
X80635Y173355D02*
X80635Y180982D01*
X82542Y180982D01*
X90168Y173355D01*
X92075Y173355D01*
X82542Y198755D02*
X80635Y200662D01*
X80635Y204475D01*
X82542Y206382D01*
X84449Y206382D01*
X86355Y204475D01*
X88262Y206382D01*
X90168Y206382D01*
X92075Y204475D01*
X92075Y200662D01*
X90168Y198755D01*
X88262Y198755D01*
X86355Y200662D01*
X84449Y198755D01*
X82542Y198755D01*
X86355Y200662D02*
X86355Y204475D01*
X90168Y224155D02*
X92075Y226062D01*
X92075Y229875D01*
X90168Y231782D01*
X82542Y231782D01*
X80635Y229875D01*
X80635Y226062D01*
X82542Y224155D01*
X84449Y224155D01*
X86355Y226062D01*
X86355Y231782D01*
X84449Y243205D02*
X80635Y247018D01*
X92075Y247018D01*
X92075Y243205D02*
X92075Y250832D01*
X90168Y254899D02*
X82542Y254899D01*
X80635Y256806D01*
X80635Y260619D01*
X82542Y262525D01*
X90168Y262525D01*
X92075Y260619D01*
X92075Y256806D01*
X90168Y254899D01*
X82542Y262525D01*
X22225Y15242D02*
X20318Y13335D01*
X22225Y15242D02*
X22225Y17148D01*
X20318Y19055D01*
X10785Y19055D01*
X10785Y17148D02*
X10785Y20962D01*
X10785Y25029D02*
X22225Y25029D01*
X10785Y25029D02*
X10785Y30749D01*
X12692Y32655D01*
X16505Y32655D01*
X18412Y30749D01*
X18412Y25029D01*
X12692Y36723D02*
X10785Y38630D01*
X10785Y42443D01*
X12692Y44349D01*
X14599Y44349D01*
X16505Y42443D01*
X16505Y40536D01*
X16505Y42443D02*
X18412Y44349D01*
X20318Y44349D01*
X22225Y42443D01*
X22225Y38630D01*
X20318Y36723D01*
D13*
X381400Y196700D02*
X381402Y196763D01*
X381408Y196825D01*
X381418Y196887D01*
X381431Y196949D01*
X381449Y197009D01*
X381470Y197068D01*
X381495Y197126D01*
X381524Y197182D01*
X381556Y197236D01*
X381591Y197288D01*
X381629Y197337D01*
X381671Y197385D01*
X381715Y197429D01*
X381763Y197471D01*
X381812Y197509D01*
X381864Y197544D01*
X381918Y197576D01*
X381974Y197605D01*
X382032Y197630D01*
X382091Y197651D01*
X382151Y197669D01*
X382213Y197682D01*
X382275Y197692D01*
X382337Y197698D01*
X382400Y197700D01*
X382463Y197698D01*
X382525Y197692D01*
X382587Y197682D01*
X382649Y197669D01*
X382709Y197651D01*
X382768Y197630D01*
X382826Y197605D01*
X382882Y197576D01*
X382936Y197544D01*
X382988Y197509D01*
X383037Y197471D01*
X383085Y197429D01*
X383129Y197385D01*
X383171Y197337D01*
X383209Y197288D01*
X383244Y197236D01*
X383276Y197182D01*
X383305Y197126D01*
X383330Y197068D01*
X383351Y197009D01*
X383369Y196949D01*
X383382Y196887D01*
X383392Y196825D01*
X383398Y196763D01*
X383400Y196700D01*
X383398Y196637D01*
X383392Y196575D01*
X383382Y196513D01*
X383369Y196451D01*
X383351Y196391D01*
X383330Y196332D01*
X383305Y196274D01*
X383276Y196218D01*
X383244Y196164D01*
X383209Y196112D01*
X383171Y196063D01*
X383129Y196015D01*
X383085Y195971D01*
X383037Y195929D01*
X382988Y195891D01*
X382936Y195856D01*
X382882Y195824D01*
X382826Y195795D01*
X382768Y195770D01*
X382709Y195749D01*
X382649Y195731D01*
X382587Y195718D01*
X382525Y195708D01*
X382463Y195702D01*
X382400Y195700D01*
X382337Y195702D01*
X382275Y195708D01*
X382213Y195718D01*
X382151Y195731D01*
X382091Y195749D01*
X382032Y195770D01*
X381974Y195795D01*
X381918Y195824D01*
X381864Y195856D01*
X381812Y195891D01*
X381763Y195929D01*
X381715Y195971D01*
X381671Y196015D01*
X381629Y196063D01*
X381591Y196112D01*
X381556Y196164D01*
X381524Y196218D01*
X381495Y196274D01*
X381470Y196332D01*
X381449Y196391D01*
X381431Y196451D01*
X381418Y196513D01*
X381408Y196575D01*
X381402Y196637D01*
X381400Y196700D01*
D12*
X387400Y69700D02*
X412400Y69700D01*
X387400Y69700D02*
X387400Y209700D01*
X412400Y209700D01*
X425400Y201700D02*
X425400Y77700D01*
D14*
X384519Y68310D02*
X383290Y67081D01*
X384519Y68310D02*
X384519Y69538D01*
X383290Y70767D01*
X377147Y70767D01*
X377147Y69538D02*
X377147Y71996D01*
X378375Y74565D02*
X377147Y75794D01*
X377147Y78251D01*
X378375Y79480D01*
X379604Y79480D01*
X380833Y78251D01*
X382062Y79480D01*
X383290Y79480D01*
X384519Y78251D01*
X384519Y75794D01*
X383290Y74565D01*
X382062Y74565D01*
X380833Y75794D01*
X379604Y74565D01*
X378375Y74565D01*
X380833Y75794D02*
X380833Y78251D01*
X429147Y67081D02*
X436519Y67081D01*
X429147Y67081D02*
X429147Y71996D01*
X432833Y69538D02*
X432833Y67081D01*
X436519Y74565D02*
X429147Y74565D01*
X429147Y78251D01*
X430375Y79480D01*
X432833Y79480D01*
X434062Y78251D01*
X434062Y74565D01*
X429147Y85735D02*
X430375Y86964D01*
X429147Y85735D02*
X429147Y83278D01*
X430375Y82049D01*
X435290Y82049D01*
X436519Y83278D01*
X436519Y85735D01*
X435290Y86964D01*
X432833Y89533D02*
X432833Y94448D01*
X429147Y100704D02*
X430375Y101932D01*
X429147Y100704D02*
X429147Y98246D01*
X430375Y97018D01*
X435290Y97018D01*
X436519Y98246D01*
X436519Y100704D01*
X435290Y101932D01*
X429147Y105730D02*
X429147Y108188D01*
X429147Y105730D02*
X430375Y104502D01*
X435290Y104502D01*
X436519Y105730D01*
X436519Y108188D01*
X435290Y109417D01*
X430375Y109417D01*
X429147Y108188D01*
X429147Y111986D02*
X436519Y111986D01*
X436519Y116901D02*
X429147Y111986D01*
X429147Y116901D02*
X436519Y116901D01*
X436519Y119470D02*
X429147Y119470D01*
X436519Y124385D01*
X429147Y124385D01*
X429147Y126954D02*
X429147Y131869D01*
X429147Y126954D02*
X436519Y126954D01*
X436519Y131869D01*
X432833Y129412D02*
X432833Y126954D01*
X429147Y138125D02*
X430375Y139353D01*
X429147Y138125D02*
X429147Y135667D01*
X430375Y134438D01*
X435290Y134438D01*
X436519Y135667D01*
X436519Y138125D01*
X435290Y139353D01*
X436519Y144380D02*
X429147Y144380D01*
X429147Y141923D02*
X429147Y146837D01*
X429147Y150635D02*
X429147Y153093D01*
X429147Y150635D02*
X430375Y149407D01*
X435290Y149407D01*
X436519Y150635D01*
X436519Y153093D01*
X435290Y154322D01*
X430375Y154322D01*
X429147Y153093D01*
X429147Y156891D02*
X436519Y156891D01*
X429147Y156891D02*
X429147Y160577D01*
X430375Y161806D01*
X432833Y161806D01*
X434062Y160577D01*
X434062Y156891D01*
X434062Y159348D02*
X436519Y161806D01*
X432833Y164375D02*
X432833Y169290D01*
X436519Y171859D02*
X436519Y176774D01*
X436519Y171859D02*
X431604Y176774D01*
X430375Y176774D01*
X429147Y175545D01*
X429147Y173088D01*
X430375Y171859D01*
X429147Y183029D02*
X436519Y183029D01*
X432833Y179343D02*
X429147Y183029D01*
X432833Y184258D02*
X432833Y179343D01*
X436519Y186828D02*
X429147Y186828D01*
X429147Y190514D01*
X430375Y191742D01*
X432833Y191742D01*
X434062Y190514D01*
X434062Y186828D01*
X436519Y194312D02*
X436519Y196769D01*
X436519Y195540D02*
X429147Y195540D01*
X429147Y194312D02*
X429147Y196769D01*
X429147Y199301D02*
X436519Y199301D01*
X436519Y204216D02*
X429147Y199301D01*
X429147Y204216D02*
X436519Y204216D01*
X437748Y206785D02*
X437748Y211700D01*
X436519Y214269D02*
X429147Y214269D01*
X429147Y219184D01*
X432833Y216727D02*
X432833Y214269D01*
X436519Y221754D02*
X429147Y221754D01*
X432833Y221754D02*
X432833Y226668D01*
X429147Y226668D02*
X436519Y226668D01*
X430375Y229238D02*
X429147Y230466D01*
X429147Y232924D01*
X430375Y234153D01*
X431604Y234153D01*
X432833Y232924D01*
X432833Y231695D01*
X432833Y232924D02*
X434062Y234153D01*
X435290Y234153D01*
X436519Y232924D01*
X436519Y230466D01*
X435290Y229238D01*
X436519Y240408D02*
X429147Y240408D01*
X432833Y236722D01*
X432833Y241637D01*
X429147Y247892D02*
X430375Y249121D01*
X429147Y247892D02*
X429147Y245435D01*
X430375Y244206D01*
X431604Y244206D01*
X432833Y245435D01*
X432833Y247892D01*
X434062Y249121D01*
X435290Y249121D01*
X436519Y247892D01*
X436519Y245435D01*
X435290Y244206D01*
X436519Y251690D02*
X429147Y251690D01*
X429147Y255376D01*
X430375Y256605D01*
X432833Y256605D01*
X434062Y255376D01*
X434062Y251690D01*
X434062Y254148D02*
X436519Y256605D01*
X435290Y259174D02*
X436519Y260403D01*
X436519Y261632D01*
X435290Y262860D01*
X429147Y262860D01*
X429147Y261632D02*
X429147Y264089D01*
X432833Y266659D02*
X432833Y271573D01*
X436519Y274143D02*
X436519Y279058D01*
X436519Y274143D02*
X431604Y279058D01*
X430375Y279058D01*
X429147Y277829D01*
X429147Y275371D01*
X430375Y274143D01*
X429147Y285313D02*
X436519Y285313D01*
X432833Y281627D02*
X429147Y285313D01*
X432833Y286542D02*
X432833Y281627D01*
X429147Y292797D02*
X430375Y294026D01*
X429147Y292797D02*
X429147Y290340D01*
X430375Y289111D01*
X431604Y289111D01*
X432833Y290340D01*
X432833Y292797D01*
X434062Y294026D01*
X435290Y294026D01*
X436519Y292797D01*
X436519Y290340D01*
X435290Y289111D01*
X432833Y296595D02*
X432833Y301510D01*
X435290Y304079D02*
X430375Y304079D01*
X429147Y305308D01*
X429147Y307765D01*
X430375Y308994D01*
X435290Y308994D01*
X436519Y307765D01*
X436519Y305308D01*
X435290Y304079D01*
X430375Y308994D01*
X435290Y311563D02*
X436519Y311563D01*
X435290Y311563D02*
X435290Y312792D01*
X436519Y312792D01*
X436519Y311563D01*
X429147Y315306D02*
X429147Y320220D01*
X429147Y315306D02*
X432833Y315306D01*
X431604Y317763D01*
X431604Y318992D01*
X432833Y320220D01*
X435290Y320220D01*
X436519Y318992D01*
X436519Y316534D01*
X435290Y315306D01*
X429147Y326476D02*
X430375Y327705D01*
X429147Y326476D02*
X429147Y324018D01*
X430375Y322790D01*
X431604Y322790D01*
X432833Y324018D01*
X432833Y326476D01*
X434062Y327705D01*
X435290Y327705D01*
X436519Y326476D01*
X436519Y324018D01*
X435290Y322790D01*
X436519Y330274D02*
X429147Y330274D01*
X432833Y330274D02*
X432833Y335189D01*
X429147Y335189D02*
X436519Y335189D01*
X434062Y337758D02*
X436519Y340215D01*
X434062Y337758D02*
X431604Y337758D01*
X429147Y340215D01*
X435290Y342747D02*
X436519Y343976D01*
X436519Y346434D01*
X435290Y347662D01*
X430375Y347662D01*
X429147Y346434D01*
X429147Y343976D01*
X430375Y342747D01*
X431604Y342747D01*
X432833Y343976D01*
X432833Y347662D01*
X435290Y350232D02*
X436519Y351460D01*
X436519Y353918D01*
X435290Y355146D01*
X430375Y355146D01*
X429147Y353918D01*
X429147Y351460D01*
X430375Y350232D01*
X431604Y350232D01*
X432833Y351460D01*
X432833Y355146D01*
X436519Y357716D02*
X434062Y360173D01*
X431604Y360173D01*
X429147Y357716D01*
D12*
X184785Y174635D02*
X184785Y167008D01*
X188598Y163195D01*
X192412Y167008D01*
X192412Y174635D01*
X202199Y174635D02*
X204105Y172728D01*
X202199Y174635D02*
X198386Y174635D01*
X196479Y172728D01*
X196479Y165102D01*
X198386Y163195D01*
X202199Y163195D01*
X204105Y165102D01*
X204105Y168915D01*
X200292Y168915D01*
X208173Y174635D02*
X208173Y163195D01*
X215799Y163195D01*
X219867Y170822D02*
X223680Y174635D01*
X223680Y163195D01*
X219867Y163195D02*
X227493Y163195D01*
D15*
X184235Y145034D02*
X184235Y144780D01*
X184150Y145034D02*
X184319Y145034D01*
X184384Y145034D02*
X184384Y144780D01*
X184384Y145034D02*
X184511Y145034D01*
X184553Y144992D01*
X184553Y144907D01*
X184511Y144865D01*
X184384Y144865D01*
X184618Y144780D02*
X184618Y145034D01*
X184745Y145034D01*
X184787Y144992D01*
X184787Y144949D01*
X184745Y144907D01*
X184787Y144865D01*
X184787Y144822D01*
X184745Y144780D01*
X184618Y144780D01*
X184618Y144907D02*
X184745Y144907D01*
X184852Y144949D02*
X184936Y145034D01*
X184936Y144780D01*
X184852Y144780D02*
X185021Y144780D01*
X185086Y144695D02*
X185170Y144780D01*
X185170Y144822D01*
X185128Y144822D01*
X185128Y144780D01*
X185170Y144780D01*
X185241Y144780D02*
X185411Y144780D01*
X185411Y144949D02*
X185241Y144780D01*
X185411Y144949D02*
X185411Y144992D01*
X185369Y145034D01*
X185284Y145034D01*
X185241Y144992D01*
X185475Y145034D02*
X185645Y145034D01*
X185645Y144992D01*
X185475Y144822D01*
X185475Y144780D01*
D12*
X184785Y192408D02*
X184785Y200035D01*
X184785Y192408D02*
X188598Y188595D01*
X192412Y192408D01*
X192412Y200035D01*
X196479Y200035D02*
X196479Y188595D01*
X202199Y188595D01*
X204105Y190502D01*
X204105Y198128D01*
X202199Y200035D01*
X196479Y200035D01*
X208173Y200035D02*
X208173Y188595D01*
X208173Y194315D02*
X215799Y194315D01*
X215799Y200035D02*
X215799Y188595D01*
X219867Y196222D02*
X223680Y200035D01*
X223680Y188595D01*
X219867Y188595D02*
X227493Y188595D01*
D15*
X184235Y170434D02*
X184235Y170180D01*
X184150Y170434D02*
X184319Y170434D01*
X184384Y170434D02*
X184384Y170180D01*
X184384Y170434D02*
X184511Y170434D01*
X184553Y170392D01*
X184553Y170307D01*
X184511Y170265D01*
X184384Y170265D01*
X184618Y170180D02*
X184618Y170434D01*
X184745Y170434D01*
X184787Y170392D01*
X184787Y170349D01*
X184745Y170307D01*
X184787Y170265D01*
X184787Y170222D01*
X184745Y170180D01*
X184618Y170180D01*
X184618Y170307D02*
X184745Y170307D01*
X184852Y170349D02*
X184936Y170434D01*
X184936Y170180D01*
X184852Y170180D02*
X185021Y170180D01*
X185086Y170095D02*
X185170Y170180D01*
X185170Y170222D01*
X185128Y170222D01*
X185128Y170180D01*
X185170Y170180D01*
X185241Y170180D02*
X185411Y170180D01*
X185411Y170349D02*
X185241Y170180D01*
X185411Y170349D02*
X185411Y170392D01*
X185369Y170434D01*
X185284Y170434D01*
X185241Y170392D01*
X185475Y170434D02*
X185645Y170434D01*
X185645Y170392D01*
X185475Y170222D01*
X185475Y170180D01*
D12*
X184785Y123835D02*
X184785Y116208D01*
X188598Y112395D01*
X192412Y116208D01*
X192412Y123835D01*
X202199Y123835D02*
X204105Y121928D01*
X202199Y123835D02*
X198386Y123835D01*
X196479Y121928D01*
X196479Y114302D01*
X198386Y112395D01*
X202199Y112395D01*
X204105Y114302D01*
X210080Y123835D02*
X213893Y123835D01*
X210080Y123835D02*
X208173Y121928D01*
X208173Y114302D01*
X210080Y112395D01*
X213893Y112395D01*
X215799Y114302D01*
X215799Y121928D01*
X213893Y123835D01*
X219867Y123835D02*
X219867Y112395D01*
X223680Y120022D02*
X219867Y123835D01*
X223680Y120022D02*
X227493Y123835D01*
X227493Y112395D01*
X231561Y120022D02*
X235374Y123835D01*
X235374Y112395D01*
X231561Y112395D02*
X239187Y112395D01*
D15*
X184235Y94234D02*
X184235Y93980D01*
X184150Y94234D02*
X184319Y94234D01*
X184384Y94234D02*
X184384Y93980D01*
X184384Y94234D02*
X184511Y94234D01*
X184553Y94192D01*
X184553Y94107D01*
X184511Y94065D01*
X184384Y94065D01*
X184618Y93980D02*
X184618Y94234D01*
X184745Y94234D01*
X184787Y94192D01*
X184787Y94149D01*
X184745Y94107D01*
X184787Y94065D01*
X184787Y94022D01*
X184745Y93980D01*
X184618Y93980D01*
X184618Y94107D02*
X184745Y94107D01*
X184852Y94149D02*
X184936Y94234D01*
X184936Y93980D01*
X184852Y93980D02*
X185021Y93980D01*
X185086Y93895D02*
X185170Y93980D01*
X185170Y94022D01*
X185128Y94022D01*
X185128Y93980D01*
X185170Y93980D01*
X185241Y93980D02*
X185411Y93980D01*
X185411Y94149D02*
X185241Y93980D01*
X185411Y94149D02*
X185411Y94192D01*
X185369Y94234D01*
X185284Y94234D01*
X185241Y94192D01*
X185475Y94234D02*
X185645Y94234D01*
X185645Y94192D01*
X185475Y94022D01*
X185475Y93980D01*
D12*
X184785Y141608D02*
X184785Y149235D01*
X184785Y141608D02*
X188598Y137795D01*
X192412Y141608D01*
X192412Y149235D01*
X196479Y149235D02*
X196479Y137795D01*
X202199Y137795D01*
X204105Y139702D01*
X204105Y147328D01*
X202199Y149235D01*
X196479Y149235D01*
X208173Y149235D02*
X208173Y137795D01*
X215799Y137795D01*
X219867Y145422D02*
X223680Y149235D01*
X223680Y137795D01*
X219867Y137795D02*
X227493Y137795D01*
D15*
X184235Y119634D02*
X184235Y119380D01*
X184150Y119634D02*
X184319Y119634D01*
X184384Y119634D02*
X184384Y119380D01*
X184384Y119634D02*
X184511Y119634D01*
X184553Y119592D01*
X184553Y119507D01*
X184511Y119465D01*
X184384Y119465D01*
X184618Y119380D02*
X184618Y119634D01*
X184745Y119634D01*
X184787Y119592D01*
X184787Y119549D01*
X184745Y119507D01*
X184787Y119465D01*
X184787Y119422D01*
X184745Y119380D01*
X184618Y119380D01*
X184618Y119507D02*
X184745Y119507D01*
X184852Y119549D02*
X184936Y119634D01*
X184936Y119380D01*
X184852Y119380D02*
X185021Y119380D01*
X185086Y119295D02*
X185170Y119380D01*
X185170Y119422D01*
X185128Y119422D01*
X185128Y119380D01*
X185170Y119380D01*
X185241Y119380D02*
X185411Y119380D01*
X185411Y119549D02*
X185241Y119380D01*
X185411Y119549D02*
X185411Y119592D01*
X185369Y119634D01*
X185284Y119634D01*
X185241Y119592D01*
X185475Y119634D02*
X185645Y119634D01*
X185645Y119592D01*
X185475Y119422D01*
X185475Y119380D01*
D12*
X184785Y217808D02*
X184785Y225435D01*
X184785Y217808D02*
X188598Y213995D01*
X192412Y217808D01*
X192412Y225435D01*
X202199Y225435D02*
X204105Y223528D01*
X202199Y225435D02*
X198386Y225435D01*
X196479Y223528D01*
X196479Y215902D01*
X198386Y213995D01*
X202199Y213995D01*
X204105Y215902D01*
X204105Y219715D01*
X200292Y219715D01*
X208173Y213995D02*
X208173Y225435D01*
X208173Y219715D02*
X215799Y219715D01*
X215799Y225435D02*
X215799Y213995D01*
X219867Y221622D02*
X223680Y225435D01*
X223680Y213995D01*
X219867Y213995D02*
X227493Y213995D01*
D15*
X184235Y195834D02*
X184235Y195580D01*
X184150Y195834D02*
X184319Y195834D01*
X184384Y195834D02*
X184384Y195580D01*
X184384Y195834D02*
X184511Y195834D01*
X184553Y195792D01*
X184553Y195707D01*
X184511Y195665D01*
X184384Y195665D01*
X184618Y195580D02*
X184618Y195834D01*
X184745Y195834D01*
X184787Y195792D01*
X184787Y195749D01*
X184745Y195707D01*
X184787Y195665D01*
X184787Y195622D01*
X184745Y195580D01*
X184618Y195580D01*
X184618Y195707D02*
X184745Y195707D01*
X184852Y195749D02*
X184936Y195834D01*
X184936Y195580D01*
X184852Y195580D02*
X185021Y195580D01*
X185086Y195495D02*
X185170Y195580D01*
X185170Y195622D01*
X185128Y195622D01*
X185128Y195580D01*
X185170Y195580D01*
X185241Y195580D02*
X185411Y195580D01*
X185411Y195749D02*
X185241Y195580D01*
X185411Y195749D02*
X185411Y195792D01*
X185369Y195834D01*
X185284Y195834D01*
X185241Y195792D01*
X185475Y195834D02*
X185645Y195834D01*
X185645Y195792D01*
X185475Y195622D01*
X185475Y195580D01*
D12*
X184785Y98435D02*
X184785Y90808D01*
X188598Y86995D01*
X192412Y90808D01*
X192412Y98435D01*
X196479Y98435D02*
X196479Y86995D01*
X202199Y86995D01*
X204105Y88902D01*
X204105Y96528D01*
X202199Y98435D01*
X196479Y98435D01*
X208173Y98435D02*
X208173Y86995D01*
X208173Y92715D02*
X215799Y92715D01*
X215799Y98435D02*
X215799Y86995D01*
X219867Y86995D02*
X219867Y98435D01*
X225587Y98435D01*
X227493Y96528D01*
X227493Y92715D01*
X225587Y90808D01*
X219867Y90808D01*
X223680Y90808D02*
X227493Y86995D01*
X231561Y94622D02*
X235374Y98435D01*
X235374Y86995D01*
X231561Y86995D02*
X239187Y86995D01*
D15*
X184235Y68834D02*
X184235Y68580D01*
X184150Y68834D02*
X184319Y68834D01*
X184384Y68834D02*
X184384Y68580D01*
X184384Y68834D02*
X184511Y68834D01*
X184553Y68792D01*
X184553Y68707D01*
X184511Y68665D01*
X184384Y68665D01*
X184618Y68580D02*
X184618Y68834D01*
X184745Y68834D01*
X184787Y68792D01*
X184787Y68749D01*
X184745Y68707D01*
X184787Y68665D01*
X184787Y68622D01*
X184745Y68580D01*
X184618Y68580D01*
X184618Y68707D02*
X184745Y68707D01*
X184852Y68749D02*
X184936Y68834D01*
X184936Y68580D01*
X184852Y68580D02*
X185021Y68580D01*
X185086Y68495D02*
X185170Y68580D01*
X185170Y68622D01*
X185128Y68622D01*
X185128Y68580D01*
X185170Y68580D01*
X185241Y68580D02*
X185411Y68580D01*
X185411Y68749D02*
X185241Y68580D01*
X185411Y68749D02*
X185411Y68792D01*
X185369Y68834D01*
X185284Y68834D01*
X185241Y68792D01*
X185475Y68834D02*
X185645Y68834D01*
X185645Y68792D01*
X185475Y68622D01*
X185475Y68580D01*
D12*
X184785Y60335D02*
X184785Y52708D01*
X188598Y48895D01*
X192412Y52708D01*
X192412Y60335D01*
X196479Y60335D02*
X196479Y48895D01*
X196479Y60335D02*
X202199Y60335D01*
X204105Y58428D01*
X204105Y54615D01*
X202199Y52708D01*
X196479Y52708D01*
X208173Y48895D02*
X208173Y60335D01*
X213893Y60335D01*
X215799Y58428D01*
X215799Y54615D01*
X213893Y52708D01*
X208173Y52708D01*
X219867Y56522D02*
X223680Y60335D01*
X223680Y48895D01*
X219867Y48895D02*
X227493Y48895D01*
D15*
X184235Y30734D02*
X184235Y30480D01*
X184150Y30734D02*
X184319Y30734D01*
X184384Y30734D02*
X184384Y30480D01*
X184384Y30734D02*
X184511Y30734D01*
X184553Y30692D01*
X184553Y30607D01*
X184511Y30565D01*
X184384Y30565D01*
X184618Y30480D02*
X184618Y30734D01*
X184745Y30734D01*
X184787Y30692D01*
X184787Y30649D01*
X184745Y30607D01*
X184787Y30565D01*
X184787Y30522D01*
X184745Y30480D01*
X184618Y30480D01*
X184618Y30607D02*
X184745Y30607D01*
X184852Y30649D02*
X184936Y30734D01*
X184936Y30480D01*
X184852Y30480D02*
X185021Y30480D01*
X185086Y30395D02*
X185170Y30480D01*
X185170Y30522D01*
X185128Y30522D01*
X185128Y30480D01*
X185170Y30480D01*
X185241Y30480D02*
X185411Y30480D01*
X185411Y30649D02*
X185241Y30480D01*
X185411Y30649D02*
X185411Y30692D01*
X185369Y30734D01*
X185284Y30734D01*
X185241Y30692D01*
X185475Y30734D02*
X185645Y30734D01*
X185645Y30692D01*
X185475Y30522D01*
X185475Y30480D01*
D12*
X283848Y267335D02*
X283848Y278775D01*
X280035Y278775D02*
X287662Y278775D01*
X291729Y278775D02*
X291729Y267335D01*
X291729Y278775D02*
X297449Y278775D01*
X299355Y276868D01*
X299355Y273055D01*
X297449Y271148D01*
X291729Y271148D01*
X303423Y267335D02*
X311049Y267335D01*
X303423Y267335D02*
X311049Y274962D01*
X311049Y276868D01*
X309143Y278775D01*
X305330Y278775D01*
X303423Y276868D01*
X280035Y215275D02*
X280035Y203835D01*
X280035Y215275D02*
X285755Y215275D01*
X287662Y213368D01*
X287662Y209555D01*
X285755Y207648D01*
X280035Y207648D01*
X295542Y203835D02*
X295542Y215275D01*
X291729Y215275D02*
X299355Y215275D01*
X303423Y215275D02*
X303423Y203835D01*
X303423Y215275D02*
X309143Y215275D01*
X311049Y213368D01*
X311049Y209555D01*
X309143Y207648D01*
X303423Y207648D01*
X307236Y207648D02*
X311049Y203835D01*
X315117Y203835D02*
X322743Y203835D01*
X315117Y203835D02*
X322743Y211462D01*
X322743Y213368D01*
X320837Y215275D01*
X317024Y215275D01*
X315117Y213368D01*
X283848Y75575D02*
X283848Y64135D01*
X280035Y75575D02*
X287662Y75575D01*
X291729Y75575D02*
X291729Y64135D01*
X291729Y75575D02*
X297449Y75575D01*
X299355Y73668D01*
X299355Y69855D01*
X297449Y67948D01*
X291729Y67948D01*
X303423Y73668D02*
X305330Y75575D01*
X309143Y75575D01*
X311049Y73668D01*
X311049Y71762D01*
X309143Y69855D01*
X307236Y69855D01*
X309143Y69855D02*
X311049Y67948D01*
X311049Y66042D01*
X309143Y64135D01*
X305330Y64135D01*
X303423Y66042D01*
X280035Y12075D02*
X280035Y635D01*
X280035Y12075D02*
X285755Y12075D01*
X287662Y10168D01*
X287662Y6355D01*
X285755Y4448D01*
X280035Y4448D01*
X295542Y635D02*
X295542Y12075D01*
X291729Y12075D02*
X299355Y12075D01*
X303423Y12075D02*
X303423Y635D01*
X303423Y12075D02*
X309143Y12075D01*
X311049Y10168D01*
X311049Y6355D01*
X309143Y4448D01*
X303423Y4448D01*
X307236Y4448D02*
X311049Y635D01*
X315117Y635D02*
X322743Y635D01*
X315117Y635D02*
X322743Y8262D01*
X322743Y10168D01*
X320837Y12075D01*
X317024Y12075D01*
X315117Y10168D01*
M02*
