M48
;GenerationSoftware,Autodesk,EAGLE,9.6.2*%
;CreationDate,2021-09-17T03:23:00Z*%
FMAT,2
ICI,OFF
METRIC,TZ,000.000
T3C0.381
T2C0.914
T1C1.702
%
G90
M71
T1
X32385Y3810
X28575Y24130
X32385Y24130
X28575Y3810
T2
X3810Y5080
X6350Y2540
X3810Y2540
X6350Y5080
X6350Y7620
X3810Y7620
X6350Y10160
X3810Y10160
X6350Y12700
X3810Y12700
X6350Y15240
X3810Y15240
X6350Y17780
X6350Y20320
X3810Y20320
X6350Y22860
X3810Y22860
X6350Y25400
X3810Y25400
X3810Y17780
T3
X41707Y18872
X42062Y22784
X22860Y3048
X14859Y3048
X41529Y13183
X17704Y24384
X33350Y7493
X21082Y16739
X15392Y23139
X18237Y19406
X10058Y23139
X38506Y9271
X37440Y12471
X12014Y21184
X15037Y18161
X38329Y7137
X7569Y16561
X26772Y16561
X36906Y17272
X2769Y23851
X30861Y15138
X32995Y17983
X34595Y18161
X10947Y14249
X24460Y8382
X11836Y4470
X21260Y4826
X17170Y6960
X24638Y5893
X11836Y5715
X21260Y6604
X7391Y18872
X9169Y18872
X10058Y9271
X11481Y10693
X41351Y16383
X30150Y16561
X19660Y13894
X35484Y6426
X28194Y27229
X19660Y22073
X42418Y9627
X42418Y13716
X16637Y16383
X33350Y15494
X35484Y8738
X35662Y9804
X39573Y21717
X40462Y19761
X38506Y19228
X33350Y13894
X40462Y8738
X31039Y11582
X17704Y11049
X15037Y11049
X7747Y8915
X41173Y15316
X3658Y1270
X22504Y13183
X21082Y11760
X16993Y11760
X14326Y11760
M30