G04 EAGLE Gerber RS-274X export*
G75*
%MOMM*%
%FSLAX34Y34*%
%LPD*%
%INBottom layer*%
%IPPOS*%
%AMOC8*
5,1,8,0,0,1.08239X$1,22.5*%
G01*
%ADD10R,1.000000X1.100000*%
%ADD11R,0.980000X0.920000*%
%ADD12R,2.000000X2.000000*%
%ADD13R,0.800000X2.700000*%
%ADD14R,0.600000X0.400000*%
%ADD15R,0.930000X0.790000*%
%ADD16R,2.065000X0.626000*%
%ADD17C,0.626000*%
%ADD18R,1.020000X1.000000*%
%ADD19R,1.000000X1.020000*%
%ADD20R,0.540000X0.600000*%
%ADD21P,1.539592X8X112.500000*%
%ADD22C,2.552700*%
%ADD23C,0.177800*%
%ADD24C,0.685800*%


D10*
X317500Y232800D03*
X317500Y249800D03*
D11*
X292100Y233550D03*
X292100Y249050D03*
D12*
X183100Y165100D03*
X147100Y165100D03*
D13*
X366600Y76200D03*
X344600Y76200D03*
D14*
X404200Y247800D03*
X404200Y234800D03*
X383200Y241300D03*
D15*
X355600Y249500D03*
X355600Y233100D03*
D16*
X153210Y82550D03*
D17*
X160405Y69850D02*
X146015Y69850D01*
X146015Y57150D02*
X160405Y57150D01*
X160405Y44450D02*
X146015Y44450D01*
X107985Y44450D02*
X93595Y44450D01*
X93595Y57150D02*
X107985Y57150D01*
X107985Y69850D02*
X93595Y69850D01*
X93595Y82550D02*
X107985Y82550D01*
D18*
X266700Y233710D03*
X266700Y248890D03*
X241300Y233710D03*
X241300Y248890D03*
D19*
X363190Y127000D03*
X348010Y127000D03*
D11*
X215900Y233550D03*
X215900Y249050D03*
D10*
X190500Y232800D03*
X190500Y249800D03*
X165100Y232800D03*
X165100Y249800D03*
X139700Y232800D03*
X139700Y249800D03*
X114300Y232800D03*
X114300Y249800D03*
X88900Y232800D03*
X88900Y249800D03*
X63500Y232800D03*
X63500Y249800D03*
D12*
X284700Y165100D03*
X248700Y165100D03*
X386300Y165100D03*
X350300Y165100D03*
D16*
X280210Y82550D03*
D17*
X287405Y69850D02*
X273015Y69850D01*
X273015Y57150D02*
X287405Y57150D01*
X287405Y44450D02*
X273015Y44450D01*
X234985Y44450D02*
X220595Y44450D01*
X220595Y57150D02*
X234985Y57150D01*
X234985Y69850D02*
X220595Y69850D01*
X220595Y82550D02*
X234985Y82550D01*
D11*
X38100Y233550D03*
X38100Y249050D03*
D20*
X93200Y152400D03*
X84600Y152400D03*
X93200Y177800D03*
X84600Y177800D03*
D21*
X63500Y25400D03*
X38100Y25400D03*
X63500Y50800D03*
X38100Y50800D03*
X63500Y76200D03*
X38100Y76200D03*
X63500Y101600D03*
X38100Y101600D03*
X63500Y127000D03*
X38100Y127000D03*
X63500Y152400D03*
X38100Y152400D03*
X63500Y177800D03*
X38100Y177800D03*
X63500Y203200D03*
X38100Y203200D03*
X63500Y228600D03*
X38100Y228600D03*
X63500Y254000D03*
X38100Y254000D03*
D20*
X55100Y177800D03*
X46500Y177800D03*
X55100Y152400D03*
X46500Y152400D03*
X55100Y127000D03*
X46500Y127000D03*
D22*
X285750Y228537D02*
X285750Y254064D01*
X323850Y254064D02*
X323850Y228537D01*
X285750Y50864D02*
X285750Y25337D01*
X323850Y25337D02*
X323850Y50864D01*
D23*
X354838Y64262D02*
X365506Y74930D01*
X366600Y76200D01*
X84582Y178054D02*
X84582Y192278D01*
X116586Y224282D01*
X182372Y224282D01*
X187706Y229616D02*
X189484Y231394D01*
X187706Y229616D02*
X182372Y224282D01*
X84582Y178054D02*
X84600Y177800D01*
X189484Y231394D02*
X190500Y232800D01*
X267716Y249174D02*
X267716Y258064D01*
X281940Y272288D01*
X267716Y249174D02*
X266700Y248890D01*
X196596Y220726D02*
X187706Y229616D01*
X190500Y232800D01*
X424180Y137160D02*
X424180Y96266D01*
D24*
X354838Y64262D03*
X281940Y272288D03*
X196596Y220726D03*
X424180Y96266D03*
X424180Y137160D03*
D23*
X381508Y240284D02*
X349504Y240284D01*
X340614Y231394D01*
X340614Y186944D01*
X337058Y183388D01*
X337058Y154940D02*
X337058Y146050D01*
X337058Y154940D02*
X337058Y183388D01*
X337058Y146050D02*
X347726Y135382D01*
X347726Y128270D01*
X381508Y240284D02*
X383200Y241300D01*
X347726Y128270D02*
X348010Y127000D01*
X166370Y163830D02*
X148590Y163830D01*
X333502Y154940D02*
X337058Y154940D01*
X148590Y163830D02*
X147100Y165100D01*
X345948Y76708D02*
X354838Y85598D01*
X354838Y87376D01*
X356616Y98044D02*
X356616Y119380D01*
X349504Y126492D01*
X345948Y76708D02*
X344600Y76200D01*
X349504Y126492D02*
X348010Y127000D01*
D24*
X166370Y163830D03*
X333502Y154940D03*
X354838Y87376D03*
X356616Y98044D03*
D23*
X395732Y217170D02*
X409956Y231394D01*
X409956Y238506D01*
X406400Y242062D01*
X392176Y242062D01*
X354838Y279400D01*
X49022Y279400D01*
X27686Y258064D01*
X27686Y238506D01*
D24*
X395732Y217170D03*
X27686Y238506D03*
D23*
X404622Y247396D02*
X406400Y247396D01*
X413512Y240284D01*
X413512Y206502D01*
X404622Y197612D01*
X404622Y247396D02*
X404200Y247800D01*
D24*
X404622Y197612D03*
D23*
X385064Y233172D02*
X356616Y233172D01*
X385064Y233172D02*
X402844Y233172D01*
X404200Y234800D01*
X356616Y233172D02*
X355600Y233100D01*
X385064Y233172D02*
X385064Y192278D01*
D24*
X385064Y192278D03*
D23*
X333502Y138938D02*
X310388Y115824D01*
X177038Y110490D02*
X150368Y110490D01*
X77470Y89154D02*
X65024Y76708D01*
X63500Y76200D01*
D24*
X333502Y138938D03*
X310388Y115824D03*
X177038Y110490D03*
X150368Y110490D03*
X77470Y89154D03*
D23*
X411734Y138938D02*
X411734Y153162D01*
X411734Y138938D02*
X408178Y135382D01*
X408178Y94488D01*
X411734Y90932D01*
X411734Y80264D01*
X329946Y-1524D01*
X50800Y-1524D01*
X36576Y12700D01*
D24*
X411734Y153162D03*
X36576Y12700D03*
D23*
X210820Y117602D02*
X225044Y131826D01*
X169926Y117602D02*
X143256Y117602D01*
D24*
X225044Y131826D03*
X210820Y117602D03*
X169926Y117602D03*
X143256Y117602D03*
D23*
X417068Y188722D02*
X417068Y224282D01*
X420624Y227838D01*
D24*
X417068Y188722D03*
X420624Y227838D03*
D23*
X228600Y30480D02*
X148590Y30480D01*
D24*
X228600Y30480D03*
X148590Y30480D03*
D23*
X415290Y78486D02*
X415290Y131826D01*
X415290Y78486D02*
X331724Y-5080D01*
X43688Y-5080D01*
X24130Y14478D01*
X24130Y153162D01*
X38354Y167386D01*
X54356Y167386D01*
X63246Y176276D01*
X63500Y177800D01*
D24*
X415290Y131826D03*
D23*
X177038Y243840D02*
X166370Y233172D01*
X165100Y232800D01*
D24*
X177038Y243840D03*
D23*
X306832Y74930D02*
X333502Y74930D01*
X306832Y74930D02*
X214376Y167386D01*
X210820Y167386D01*
X153924Y231394D02*
X139700Y231394D01*
X139700Y232800D01*
D24*
X333502Y74930D03*
X210820Y167386D03*
X153924Y231394D03*
D23*
X230378Y249174D02*
X241046Y249174D01*
X230378Y249174D02*
X214376Y265176D01*
X59690Y265176D01*
X49022Y254508D01*
X49022Y215392D01*
X38354Y204724D01*
X241046Y249174D02*
X241300Y248890D01*
X38354Y204724D02*
X38100Y203200D01*
X182372Y194056D02*
X182372Y165608D01*
X183100Y165100D01*
D24*
X182372Y194056D03*
D23*
X113030Y231394D02*
X100584Y231394D01*
X113030Y231394D02*
X114300Y232800D01*
X385064Y114046D02*
X385064Y92710D01*
X385064Y114046D02*
X374396Y124714D01*
X150368Y181610D02*
X120142Y211836D01*
D24*
X100584Y231394D03*
X385064Y92710D03*
X374396Y124714D03*
X120142Y211836D03*
X150368Y181610D03*
D23*
X383286Y71374D02*
X383286Y62484D01*
X326390Y5588D01*
X68580Y5588D01*
X52578Y21590D01*
X52578Y87376D01*
X43688Y96266D02*
X38354Y101600D01*
X43688Y96266D02*
X52578Y87376D01*
X38354Y101600D02*
X38100Y101600D01*
X88138Y201168D02*
X88138Y231394D01*
X88138Y201168D02*
X81026Y194056D01*
X81026Y185166D01*
X73914Y178054D01*
X73914Y165608D02*
X73914Y122936D01*
X73914Y165608D02*
X73914Y178054D01*
X73914Y122936D02*
X63246Y112268D01*
X59690Y112268D01*
X43688Y96266D01*
X88138Y231394D02*
X88900Y232800D01*
X75692Y165608D02*
X73914Y165608D01*
D24*
X383286Y71374D03*
X75692Y165608D03*
D23*
X363728Y142494D02*
X363728Y128270D01*
X381508Y160274D02*
X385064Y163830D01*
X381508Y160274D02*
X363728Y142494D01*
X363728Y128270D02*
X363190Y127000D01*
X385064Y163830D02*
X386300Y165100D01*
X267716Y165608D02*
X249936Y165608D01*
X369062Y172720D02*
X381508Y160274D01*
X249936Y165608D02*
X248700Y165100D01*
X381508Y160274D02*
X386300Y165100D01*
D24*
X267716Y165608D03*
X369062Y172720D03*
D23*
X404622Y170942D02*
X404622Y87376D01*
X404622Y170942D02*
X395732Y179832D01*
X365506Y179832D01*
X356616Y170942D02*
X351282Y165608D01*
X356616Y170942D02*
X365506Y179832D01*
X351282Y165608D02*
X350300Y165100D01*
X308610Y156718D02*
X308610Y151384D01*
X308610Y156718D02*
X329946Y178054D01*
X329946Y179832D01*
X345948Y181610D02*
X356616Y170942D01*
X350300Y165100D01*
X36576Y151384D02*
X36576Y140716D01*
X27686Y131826D01*
X27686Y46482D01*
X38354Y35814D01*
X41910Y35814D01*
X49022Y28702D01*
X49022Y19812D01*
X66802Y2032D01*
X328168Y2032D01*
X404622Y78486D01*
X404622Y87376D01*
X38100Y152400D02*
X36576Y151384D01*
D24*
X404622Y87376D03*
X308610Y151384D03*
X329946Y179832D03*
X345948Y181610D03*
D23*
X152146Y98044D02*
X152146Y83820D01*
X152146Y98044D02*
X109474Y140716D01*
X109474Y142494D01*
X152146Y83820D02*
X153210Y82550D01*
X244602Y83820D02*
X280162Y83820D01*
X280210Y82550D01*
D24*
X109474Y142494D03*
X244602Y83820D03*
D23*
X118364Y44704D02*
X102362Y44704D01*
X212598Y48260D02*
X223266Y48260D01*
X226822Y44704D01*
X102362Y44704D02*
X100790Y44450D01*
X226822Y44704D02*
X227790Y44450D01*
D24*
X118364Y44704D03*
X212598Y48260D03*
D23*
X171704Y69596D02*
X153924Y69596D01*
X246380Y58928D02*
X265938Y58928D01*
X276606Y69596D01*
X280162Y69596D01*
X153924Y69596D02*
X153210Y69850D01*
X280162Y69596D02*
X280210Y69850D01*
D24*
X171704Y69596D03*
X246380Y58928D03*
D23*
X118364Y57150D02*
X100790Y57150D01*
X212598Y66040D02*
X216154Y66040D01*
X225044Y57150D01*
X227790Y57150D01*
D24*
X118364Y57150D03*
X212598Y66040D03*
D23*
X349504Y250952D02*
X354838Y250952D01*
X349504Y250952D02*
X329946Y270510D01*
X299720Y270510D01*
X283718Y254508D01*
X283718Y243840D01*
X285496Y242062D01*
X354838Y250952D02*
X355600Y249500D01*
X285750Y241300D02*
X285496Y242062D01*
X189484Y250952D02*
X166370Y250952D01*
X165100Y249800D01*
X189484Y250952D02*
X190500Y249800D01*
X91694Y154940D02*
X91694Y153162D01*
X91694Y154940D02*
X88138Y158496D01*
X81026Y158496D01*
X77470Y154940D01*
X77470Y126492D01*
X132588Y71374D01*
X132588Y48260D01*
X143256Y37592D01*
X203708Y37592D02*
X285496Y37592D01*
X203708Y37592D02*
X143256Y37592D01*
X93200Y152400D02*
X91694Y153162D01*
X285750Y38100D02*
X285496Y37592D01*
X203708Y236728D02*
X191262Y249174D01*
X203708Y174498D02*
X203708Y37592D01*
X203708Y174498D02*
X203708Y236728D01*
X191262Y249174D02*
X190500Y249800D01*
X283718Y238506D02*
X285496Y240284D01*
X283718Y238506D02*
X283718Y194056D01*
X308610Y169164D01*
X308610Y162052D01*
X297942Y151384D01*
X237490Y151384D01*
X214376Y174498D01*
X203708Y174498D01*
X285496Y240284D02*
X285750Y241300D01*
X228600Y82042D02*
X228600Y76708D01*
X228600Y71374D01*
X227790Y69850D01*
X228600Y82042D02*
X227790Y82550D01*
X100584Y82042D02*
X100584Y71374D01*
X100790Y69850D01*
X100584Y82042D02*
X100790Y82550D01*
X100584Y69596D02*
X97028Y69596D01*
X65024Y37592D01*
X65024Y26924D01*
X100584Y69596D02*
X100790Y69850D01*
X65024Y26924D02*
X63500Y25400D01*
X228600Y76708D02*
X289052Y76708D01*
X301498Y64262D01*
X301498Y18034D01*
X292608Y9144D01*
X159258Y9144D01*
X125476Y42926D01*
X125476Y60706D01*
X116586Y69596D01*
X102362Y69596D01*
X100790Y69850D01*
X93472Y162052D02*
X93472Y176276D01*
X93472Y162052D02*
X102362Y153162D01*
X102362Y112268D01*
X111252Y103378D02*
X139700Y74930D01*
X111252Y103378D02*
X102362Y112268D01*
X139700Y74930D02*
X139700Y67818D01*
X150368Y57150D01*
X153210Y57150D01*
X93472Y176276D02*
X93200Y177800D01*
X210820Y249174D02*
X214376Y249174D01*
X210820Y249174D02*
X198374Y261620D01*
X86360Y261620D01*
X73914Y249174D01*
X73914Y188722D01*
X91694Y188722D02*
X91694Y178054D01*
X214376Y249174D02*
X215900Y249050D01*
X93200Y177800D02*
X91694Y178054D01*
X100584Y92710D02*
X100584Y83820D01*
X111252Y103378D02*
X114808Y106934D01*
X100584Y83820D02*
X100790Y82550D01*
D24*
X73914Y188722D03*
X91694Y188722D03*
X100584Y92710D03*
X114808Y106934D03*
X413512Y163830D03*
D23*
X86360Y151384D02*
X86360Y122936D01*
X136144Y73152D01*
X136144Y57150D01*
X148590Y44704D01*
X152146Y44704D01*
X153210Y44450D01*
X113030Y250952D02*
X89916Y250952D01*
X88900Y249800D01*
X113030Y250952D02*
X114300Y249800D01*
X114808Y250952D02*
X139700Y250952D01*
X114808Y250952D02*
X114300Y249800D01*
X216154Y233172D02*
X241046Y233172D01*
X216154Y233172D02*
X215900Y233550D01*
X241046Y233172D02*
X241300Y233710D01*
X242824Y234950D02*
X265938Y234950D01*
X266700Y233710D01*
X242824Y234950D02*
X241300Y233710D01*
X285496Y165608D02*
X301498Y165608D01*
X285496Y165608D02*
X284700Y165100D01*
X267716Y181610D02*
X267716Y233172D01*
X267716Y181610D02*
X283718Y165608D01*
X267716Y233172D02*
X266700Y233710D01*
X283718Y165608D02*
X284700Y165100D01*
X150368Y250952D02*
X139700Y250952D01*
X150368Y250952D02*
X157480Y258064D01*
X196596Y258064D01*
X207264Y247396D01*
X207264Y242062D01*
X214376Y234950D01*
X139700Y249800D02*
X139700Y250952D01*
X214376Y234950D02*
X215900Y233550D01*
X157480Y44704D02*
X153924Y44704D01*
X157480Y44704D02*
X196596Y83820D01*
X196596Y138938D01*
X153924Y44704D02*
X153210Y44450D01*
D24*
X301498Y165608D03*
X196596Y138938D03*
M02*
