G04 EAGLE Gerber RS-274X export*
G75*
%MOMM*%
%FSLAX34Y34*%
%LPD*%
%INSolder Mask bottom*%
%IPPOS*%
%AMOC8*
5,1,8,0,0,1.08239X$1,22.5*%
G01*
%ADD10R,1.101600X1.201600*%
%ADD11R,1.081600X1.021600*%
%ADD12R,2.101600X2.101600*%
%ADD13R,0.901600X2.801600*%
%ADD14R,0.701600X0.501600*%
%ADD15R,1.031600X0.891600*%
%ADD16R,2.166600X0.727600*%
%ADD17C,0.727600*%
%ADD18R,1.121600X1.101600*%
%ADD19R,1.101600X1.121600*%
%ADD20R,0.641600X0.701600*%
%ADD21P,1.649562X8X112.500000*%
%ADD22C,2.654300*%

G36*
X597018Y151146D02*
X597018Y151146D01*
X597137Y151153D01*
X597175Y151166D01*
X597216Y151171D01*
X597326Y151214D01*
X597439Y151251D01*
X597474Y151273D01*
X597511Y151288D01*
X597607Y151358D01*
X597708Y151421D01*
X597736Y151451D01*
X597769Y151474D01*
X597845Y151566D01*
X597926Y151653D01*
X597946Y151688D01*
X597971Y151719D01*
X598022Y151827D01*
X598080Y151931D01*
X598090Y151971D01*
X598107Y152007D01*
X598129Y152124D01*
X598159Y152239D01*
X598163Y152300D01*
X598167Y152320D01*
X598165Y152340D01*
X598169Y152400D01*
X598169Y368300D01*
X598154Y368418D01*
X598147Y368537D01*
X598134Y368575D01*
X598129Y368616D01*
X598086Y368726D01*
X598049Y368839D01*
X598027Y368874D01*
X598012Y368911D01*
X597943Y369007D01*
X597879Y369108D01*
X597849Y369136D01*
X597826Y369169D01*
X597734Y369245D01*
X597647Y369326D01*
X597612Y369346D01*
X597581Y369371D01*
X597473Y369422D01*
X597369Y369480D01*
X597329Y369490D01*
X597293Y369507D01*
X597176Y369529D01*
X597061Y369559D01*
X597001Y369563D01*
X596981Y369567D01*
X596960Y369565D01*
X596900Y369569D01*
X165100Y369569D01*
X164982Y369554D01*
X164863Y369547D01*
X164825Y369534D01*
X164784Y369529D01*
X164674Y369486D01*
X164561Y369449D01*
X164526Y369427D01*
X164489Y369412D01*
X164393Y369343D01*
X164292Y369279D01*
X164264Y369249D01*
X164231Y369226D01*
X164156Y369134D01*
X164074Y369047D01*
X164054Y369012D01*
X164029Y368981D01*
X163978Y368873D01*
X163920Y368769D01*
X163910Y368729D01*
X163893Y368693D01*
X163871Y368576D01*
X163841Y368461D01*
X163837Y368401D01*
X163833Y368381D01*
X163835Y368360D01*
X163831Y368300D01*
X163831Y152400D01*
X163846Y152282D01*
X163853Y152163D01*
X163866Y152125D01*
X163871Y152084D01*
X163914Y151974D01*
X163951Y151861D01*
X163973Y151826D01*
X163988Y151789D01*
X164058Y151693D01*
X164121Y151592D01*
X164151Y151564D01*
X164174Y151531D01*
X164266Y151456D01*
X164353Y151374D01*
X164388Y151354D01*
X164419Y151329D01*
X164527Y151278D01*
X164631Y151220D01*
X164671Y151210D01*
X164707Y151193D01*
X164824Y151171D01*
X164939Y151141D01*
X165000Y151137D01*
X165020Y151133D01*
X165040Y151135D01*
X165100Y151131D01*
X596900Y151131D01*
X597018Y151146D01*
G37*
D10*
X317500Y232800D03*
X317500Y249800D03*
D11*
X292100Y233550D03*
X292100Y249050D03*
D12*
X183100Y165100D03*
X147100Y165100D03*
D13*
X366600Y76200D03*
X344600Y76200D03*
D14*
X404200Y247800D03*
X404200Y234800D03*
X383200Y241300D03*
D15*
X355600Y249500D03*
X355600Y233100D03*
D16*
X153210Y82550D03*
D17*
X160405Y69850D02*
X146015Y69850D01*
X146015Y57150D02*
X160405Y57150D01*
X160405Y44450D02*
X146015Y44450D01*
X107985Y44450D02*
X93595Y44450D01*
X93595Y57150D02*
X107985Y57150D01*
X107985Y69850D02*
X93595Y69850D01*
X93595Y82550D02*
X107985Y82550D01*
D18*
X266700Y233710D03*
X266700Y248890D03*
X241300Y233710D03*
X241300Y248890D03*
D19*
X363190Y127000D03*
X348010Y127000D03*
D11*
X215900Y233550D03*
X215900Y249050D03*
D10*
X190500Y232800D03*
X190500Y249800D03*
X165100Y232800D03*
X165100Y249800D03*
X139700Y232800D03*
X139700Y249800D03*
X114300Y232800D03*
X114300Y249800D03*
X88900Y232800D03*
X88900Y249800D03*
X63500Y232800D03*
X63500Y249800D03*
D12*
X284700Y165100D03*
X248700Y165100D03*
X386300Y165100D03*
X350300Y165100D03*
D16*
X280210Y82550D03*
D17*
X287405Y69850D02*
X273015Y69850D01*
X273015Y57150D02*
X287405Y57150D01*
X287405Y44450D02*
X273015Y44450D01*
X234985Y44450D02*
X220595Y44450D01*
X220595Y57150D02*
X234985Y57150D01*
X234985Y69850D02*
X220595Y69850D01*
X220595Y82550D02*
X234985Y82550D01*
D11*
X38100Y233550D03*
X38100Y249050D03*
D20*
X93200Y152400D03*
X84600Y152400D03*
X93200Y177800D03*
X84600Y177800D03*
D21*
X63500Y25400D03*
X38100Y25400D03*
X63500Y50800D03*
X38100Y50800D03*
X63500Y76200D03*
X38100Y76200D03*
X63500Y101600D03*
X38100Y101600D03*
X63500Y127000D03*
X38100Y127000D03*
X63500Y152400D03*
X38100Y152400D03*
X63500Y177800D03*
X38100Y177800D03*
X63500Y203200D03*
X38100Y203200D03*
X63500Y228600D03*
X38100Y228600D03*
X63500Y254000D03*
X38100Y254000D03*
D20*
X55100Y177800D03*
X46500Y177800D03*
X55100Y152400D03*
X46500Y152400D03*
X55100Y127000D03*
X46500Y127000D03*
D22*
X285750Y228537D02*
X285750Y254064D01*
X323850Y254064D02*
X323850Y228537D01*
X285750Y50864D02*
X285750Y25337D01*
X323850Y25337D02*
X323850Y50864D01*
M02*
