G04 EAGLE Gerber RS-274X export*
G75*
%MOMM*%
%FSLAX34Y34*%
%LPD*%
%INSilk bottom*%
%IPPOS*%
%AMOC8*
5,1,8,0,0,1.08239X$1,22.5*%
G01*
%ADD10C,0.127000*%
%ADD11C,0.050800*%
%ADD12C,0.101600*%
%ADD13C,0.150000*%
%ADD14C,0.076200*%
%ADD15C,0.250000*%
%ADD16C,1.000000*%
%ADD17C,0.500000*%


D10*
X322000Y239800D02*
X322000Y242800D01*
X313000Y242800D02*
X313000Y239800D01*
D11*
X331734Y227823D02*
X332654Y226903D01*
X332654Y225064D01*
X331734Y224144D01*
X328056Y224144D01*
X327136Y225064D01*
X327136Y226903D01*
X328056Y227823D01*
X332654Y229688D02*
X332654Y233366D01*
X332654Y229688D02*
X329895Y229688D01*
X330814Y231527D01*
X330814Y232447D01*
X329895Y233366D01*
X328056Y233366D01*
X327136Y232447D01*
X327136Y230608D01*
X328056Y229688D01*
X308187Y226931D02*
X307270Y227849D01*
X308187Y226931D02*
X308187Y225096D01*
X307270Y224178D01*
X303599Y224178D01*
X302682Y225096D01*
X302682Y226931D01*
X303599Y227849D01*
X308187Y232464D02*
X307270Y233382D01*
X308187Y232464D02*
X308187Y230629D01*
X307270Y229711D01*
X303599Y229711D01*
X302682Y230629D01*
X302682Y232464D01*
X303599Y233382D01*
X303599Y235244D02*
X307270Y235244D01*
X308187Y236162D01*
X308187Y237997D01*
X307270Y238915D01*
X303599Y238915D01*
X302682Y237997D01*
X302682Y236162D01*
X303599Y235244D01*
X307270Y238915D01*
X307270Y242612D02*
X308187Y244447D01*
X307270Y242612D02*
X305434Y240777D01*
X303599Y240777D01*
X302682Y241695D01*
X302682Y243530D01*
X303599Y244447D01*
X304517Y244447D01*
X305434Y243530D01*
X305434Y240777D01*
X303599Y246310D02*
X307270Y246310D01*
X308187Y247228D01*
X308187Y249063D01*
X307270Y249980D01*
X303599Y249980D01*
X302682Y249063D01*
X302682Y247228D01*
X303599Y246310D01*
X307270Y249980D01*
X307270Y251843D02*
X308187Y252760D01*
X308187Y254596D01*
X307270Y255513D01*
X306352Y255513D01*
X305434Y254596D01*
X305434Y253678D01*
X305434Y254596D02*
X304517Y255513D01*
X303599Y255513D01*
X302682Y254596D01*
X302682Y252760D01*
X303599Y251843D01*
X308187Y257376D02*
X308187Y261046D01*
X307270Y261046D01*
X303599Y257376D01*
X302682Y257376D01*
X302682Y261046D01*
X302682Y262909D02*
X308187Y262909D01*
X308187Y265661D01*
X307270Y266579D01*
X305434Y266579D01*
X304517Y265661D01*
X304517Y262909D01*
X304517Y264744D02*
X302682Y266579D01*
X307270Y268441D02*
X308187Y268441D01*
X307270Y268441D02*
X305434Y270277D01*
X307270Y272112D01*
X308187Y272112D01*
X305434Y270277D02*
X302682Y270277D01*
X308187Y273974D02*
X308187Y277645D01*
X308187Y273974D02*
X305434Y273974D01*
X306352Y275809D01*
X306352Y276727D01*
X305434Y277645D01*
X303599Y277645D01*
X302682Y276727D01*
X302682Y274892D01*
X303599Y273974D01*
X304517Y279507D02*
X308187Y279507D01*
X304517Y279507D02*
X302682Y281342D01*
X304517Y283178D01*
X308187Y283178D01*
X307270Y285040D02*
X308187Y285958D01*
X308187Y287793D01*
X307270Y288710D01*
X306352Y288710D01*
X305434Y287793D01*
X304517Y288710D01*
X303599Y288710D01*
X302682Y287793D01*
X302682Y285958D01*
X303599Y285040D01*
X304517Y285040D01*
X305434Y285958D01*
X306352Y285040D01*
X307270Y285040D01*
X305434Y285958D02*
X305434Y287793D01*
X302682Y290573D02*
X308187Y290573D01*
X308187Y293326D01*
X307270Y294243D01*
X306352Y294243D01*
X305434Y293326D01*
X304517Y294243D01*
X303599Y294243D01*
X302682Y293326D01*
X302682Y290573D01*
X305434Y290573D02*
X305434Y293326D01*
X302682Y296106D02*
X308187Y296106D01*
X308187Y298859D01*
X307270Y299776D01*
X306352Y299776D01*
X305434Y298859D01*
X304517Y299776D01*
X303599Y299776D01*
X302682Y298859D01*
X302682Y296106D01*
X305434Y296106D02*
X305434Y298859D01*
X306352Y301639D02*
X308187Y303474D01*
X302682Y303474D01*
X302682Y301639D02*
X302682Y305309D01*
X303599Y307172D02*
X307270Y307172D01*
X308187Y308089D01*
X308187Y309924D01*
X307270Y310842D01*
X303599Y310842D01*
X302682Y309924D01*
X302682Y308089D01*
X303599Y307172D01*
X307270Y310842D01*
X308187Y312704D02*
X308187Y316375D01*
X308187Y312704D02*
X305434Y312704D01*
X306352Y314540D01*
X306352Y315457D01*
X305434Y316375D01*
X303599Y316375D01*
X302682Y315457D01*
X302682Y313622D01*
X303599Y312704D01*
X304401Y229651D02*
X305150Y228902D01*
X305150Y227403D01*
X304401Y226654D01*
X301403Y226654D01*
X300654Y227403D01*
X300654Y228902D01*
X301403Y229651D01*
X304401Y232757D02*
X305150Y234255D01*
X304401Y232757D02*
X302902Y231258D01*
X301403Y231258D01*
X300654Y232007D01*
X300654Y233506D01*
X301403Y234255D01*
X302153Y234255D01*
X302902Y233506D01*
X302902Y231258D01*
X282801Y226654D02*
X279803Y226654D01*
X282801Y226654D02*
X283550Y227403D01*
X283550Y228902D01*
X282801Y229651D01*
X279803Y229651D01*
X279054Y228902D01*
X279054Y227403D01*
X279803Y226654D01*
X282801Y229651D01*
X282801Y232757D02*
X283550Y234255D01*
X282801Y232757D02*
X281302Y231258D01*
X279803Y231258D01*
X279054Y232007D01*
X279054Y233506D01*
X279803Y234255D01*
X280553Y234255D01*
X281302Y233506D01*
X281302Y231258D01*
X279803Y235862D02*
X282801Y235862D01*
X283550Y236611D01*
X283550Y238110D01*
X282801Y238859D01*
X279803Y238859D01*
X279054Y238110D01*
X279054Y236611D01*
X279803Y235862D01*
X282801Y238859D01*
X282801Y240466D02*
X283550Y241215D01*
X283550Y242714D01*
X282801Y243463D01*
X282051Y243463D01*
X281302Y242714D01*
X281302Y241964D01*
X281302Y242714D02*
X280553Y243463D01*
X279803Y243463D01*
X279054Y242714D01*
X279054Y241215D01*
X279803Y240466D01*
X282801Y245070D02*
X283550Y245819D01*
X283550Y247318D01*
X282801Y248067D01*
X282051Y248067D01*
X281302Y247318D01*
X281302Y246568D01*
X281302Y247318D02*
X280553Y248067D01*
X279803Y248067D01*
X279054Y247318D01*
X279054Y245819D01*
X279803Y245070D01*
X283550Y251921D02*
X282801Y252671D01*
X283550Y251921D02*
X283550Y250423D01*
X282801Y249674D01*
X279803Y249674D01*
X279054Y250423D01*
X279054Y251921D01*
X279803Y252671D01*
X281302Y252671D01*
X281302Y251172D01*
X282051Y254277D02*
X283550Y255776D01*
X279054Y255776D01*
X279054Y254277D02*
X279054Y257275D01*
X279803Y258881D02*
X282801Y258881D01*
X283550Y259631D01*
X283550Y261129D01*
X282801Y261879D01*
X279803Y261879D01*
X279054Y261129D01*
X279054Y259631D01*
X279803Y258881D01*
X282801Y261879D01*
X283550Y265733D02*
X279054Y265733D01*
X281302Y263485D02*
X283550Y265733D01*
X281302Y266482D02*
X281302Y263485D01*
X283550Y268089D02*
X283550Y271086D01*
X282801Y271086D01*
X279803Y268089D01*
X279054Y268089D01*
X279054Y271086D01*
X279054Y272693D02*
X282051Y272693D01*
X283550Y274192D01*
X282051Y275690D01*
X279054Y275690D01*
X281302Y275690D02*
X281302Y272693D01*
X279054Y278796D02*
X283550Y278796D01*
X283550Y280294D02*
X283550Y277297D01*
X279054Y281901D02*
X279054Y284898D01*
X279054Y281901D02*
X282051Y284898D01*
X282801Y284898D01*
X283550Y284149D01*
X283550Y282650D01*
X282801Y281901D01*
X282051Y286505D02*
X279054Y286505D01*
X282051Y286505D02*
X283550Y288003D01*
X282051Y289502D01*
X279054Y289502D01*
X281302Y289502D02*
X281302Y286505D01*
D10*
X142600Y178100D02*
X142600Y152100D01*
X187600Y152100D01*
X187601Y152100D02*
X187921Y151920D01*
X188246Y151748D01*
X188575Y151584D01*
X188908Y151428D01*
X189245Y151281D01*
X189585Y151141D01*
X189929Y151010D01*
X190275Y150887D01*
X190625Y150773D01*
X190977Y150668D01*
X191332Y150571D01*
X191689Y150483D01*
X192048Y150404D01*
X192409Y150333D01*
X192771Y150272D01*
X193135Y150219D01*
X193500Y150175D01*
X193866Y150140D01*
X194233Y150114D01*
X194600Y150098D01*
X194968Y150090D01*
X195336Y150091D01*
X195703Y150101D01*
X196071Y150120D01*
X196437Y150148D01*
X196803Y150185D01*
X197168Y150231D01*
X197531Y150286D01*
X197893Y150350D01*
X198254Y150423D01*
X198612Y150504D01*
X198969Y150595D01*
X199323Y150694D01*
X199675Y150801D01*
X200024Y150917D01*
X200369Y151042D01*
X200712Y151175D01*
X201052Y151317D01*
X201387Y151466D01*
X201719Y151624D01*
X202047Y151790D01*
X202371Y151964D01*
X202691Y152146D01*
X203006Y152336D01*
X203316Y152533D01*
X203622Y152738D01*
X203922Y152950D01*
X204217Y153170D01*
X204506Y153397D01*
X204790Y153631D01*
X205068Y153871D01*
X205340Y154119D01*
X205606Y154372D01*
X205866Y154633D01*
X206119Y154900D01*
X206365Y155172D01*
X206605Y155451D01*
X206838Y155736D01*
X207064Y156026D01*
X207282Y156321D01*
X207494Y156622D01*
X207698Y156928D01*
X207894Y157239D01*
X208083Y157555D01*
X208264Y157875D01*
X208437Y158199D01*
X208602Y158528D01*
X208759Y158860D01*
X208907Y159197D01*
X209048Y159536D01*
X209180Y159880D01*
X209304Y160226D01*
X209419Y160575D01*
X209525Y160927D01*
X209623Y161282D01*
X209712Y161638D01*
X209793Y161997D01*
X209864Y162358D01*
X209927Y162720D01*
X209981Y163084D01*
X210026Y163449D01*
X210062Y163815D01*
X210089Y164181D01*
X210107Y164549D01*
X210116Y164916D01*
X210116Y165284D01*
X210107Y165651D01*
X210089Y166019D01*
X210062Y166385D01*
X210026Y166751D01*
X209981Y167116D01*
X209927Y167480D01*
X209864Y167842D01*
X209793Y168203D01*
X209712Y168562D01*
X209623Y168918D01*
X209525Y169273D01*
X209419Y169625D01*
X209304Y169974D01*
X209180Y170320D01*
X209048Y170664D01*
X208907Y171003D01*
X208759Y171340D01*
X208602Y171672D01*
X208437Y172001D01*
X208264Y172325D01*
X208083Y172645D01*
X207894Y172961D01*
X207698Y173272D01*
X207494Y173578D01*
X207282Y173879D01*
X207064Y174174D01*
X206838Y174464D01*
X206605Y174749D01*
X206365Y175028D01*
X206119Y175300D01*
X205866Y175567D01*
X205606Y175828D01*
X205340Y176081D01*
X205068Y176329D01*
X204790Y176569D01*
X204506Y176803D01*
X204217Y177030D01*
X203922Y177250D01*
X203622Y177462D01*
X203316Y177667D01*
X203006Y177864D01*
X202691Y178054D01*
X202371Y178236D01*
X202047Y178410D01*
X201719Y178576D01*
X201387Y178734D01*
X201052Y178883D01*
X200712Y179025D01*
X200369Y179158D01*
X200024Y179283D01*
X199675Y179399D01*
X199323Y179506D01*
X198969Y179605D01*
X198612Y179696D01*
X198254Y179777D01*
X197893Y179850D01*
X197531Y179914D01*
X197168Y179969D01*
X196803Y180015D01*
X196437Y180052D01*
X196071Y180080D01*
X195703Y180099D01*
X195336Y180109D01*
X194968Y180110D01*
X194600Y180102D01*
X194233Y180086D01*
X193866Y180060D01*
X193500Y180025D01*
X193135Y179981D01*
X192771Y179928D01*
X192409Y179867D01*
X192048Y179796D01*
X191689Y179717D01*
X191332Y179629D01*
X190977Y179532D01*
X190625Y179427D01*
X190275Y179313D01*
X189929Y179190D01*
X189585Y179059D01*
X189245Y178919D01*
X188908Y178772D01*
X188575Y178616D01*
X188246Y178452D01*
X187921Y178280D01*
X187601Y178100D01*
X142600Y178100D01*
D12*
X215753Y167305D02*
X219656Y163402D01*
X215753Y167305D02*
X215753Y155597D01*
X219656Y155597D02*
X211850Y155597D01*
X184599Y185615D02*
X184599Y197313D01*
X184599Y185615D02*
X178750Y185615D01*
X176800Y187565D01*
X176800Y195363D01*
X178750Y197313D01*
X184599Y197313D01*
X172901Y197313D02*
X165102Y197313D01*
X165102Y195363D01*
X172901Y187565D01*
X172901Y185615D01*
D13*
X352350Y92200D02*
X358850Y92200D01*
X358850Y60200D02*
X352350Y60200D01*
D14*
X371219Y95581D02*
X371219Y104827D01*
X371219Y95581D02*
X365055Y95581D01*
X362011Y95581D02*
X355847Y95581D01*
X362011Y95581D02*
X355847Y101745D01*
X355847Y103286D01*
X357388Y104827D01*
X360470Y104827D01*
X362011Y103286D01*
D13*
X385700Y251300D02*
X397490Y251300D01*
X385700Y251300D02*
X385700Y247300D01*
X385700Y231300D02*
X397490Y231300D01*
X385700Y231300D02*
X385700Y235300D01*
D15*
X402950Y255300D02*
X402952Y255370D01*
X402958Y255440D01*
X402968Y255509D01*
X402981Y255578D01*
X402999Y255646D01*
X403020Y255713D01*
X403045Y255778D01*
X403074Y255842D01*
X403106Y255905D01*
X403142Y255965D01*
X403181Y256023D01*
X403223Y256079D01*
X403268Y256133D01*
X403316Y256184D01*
X403367Y256232D01*
X403421Y256277D01*
X403477Y256319D01*
X403535Y256358D01*
X403595Y256394D01*
X403658Y256426D01*
X403722Y256455D01*
X403787Y256480D01*
X403854Y256501D01*
X403922Y256519D01*
X403991Y256532D01*
X404060Y256542D01*
X404130Y256548D01*
X404200Y256550D01*
X404270Y256548D01*
X404340Y256542D01*
X404409Y256532D01*
X404478Y256519D01*
X404546Y256501D01*
X404613Y256480D01*
X404678Y256455D01*
X404742Y256426D01*
X404805Y256394D01*
X404865Y256358D01*
X404923Y256319D01*
X404979Y256277D01*
X405033Y256232D01*
X405084Y256184D01*
X405132Y256133D01*
X405177Y256079D01*
X405219Y256023D01*
X405258Y255965D01*
X405294Y255905D01*
X405326Y255842D01*
X405355Y255778D01*
X405380Y255713D01*
X405401Y255646D01*
X405419Y255578D01*
X405432Y255509D01*
X405442Y255440D01*
X405448Y255370D01*
X405450Y255300D01*
X405448Y255230D01*
X405442Y255160D01*
X405432Y255091D01*
X405419Y255022D01*
X405401Y254954D01*
X405380Y254887D01*
X405355Y254822D01*
X405326Y254758D01*
X405294Y254695D01*
X405258Y254635D01*
X405219Y254577D01*
X405177Y254521D01*
X405132Y254467D01*
X405084Y254416D01*
X405033Y254368D01*
X404979Y254323D01*
X404923Y254281D01*
X404865Y254242D01*
X404805Y254206D01*
X404742Y254174D01*
X404678Y254145D01*
X404613Y254120D01*
X404546Y254099D01*
X404478Y254081D01*
X404409Y254068D01*
X404340Y254058D01*
X404270Y254052D01*
X404200Y254050D01*
X404130Y254052D01*
X404060Y254058D01*
X403991Y254068D01*
X403922Y254081D01*
X403854Y254099D01*
X403787Y254120D01*
X403722Y254145D01*
X403658Y254174D01*
X403595Y254206D01*
X403535Y254242D01*
X403477Y254281D01*
X403421Y254323D01*
X403367Y254368D01*
X403316Y254416D01*
X403268Y254467D01*
X403223Y254521D01*
X403181Y254577D01*
X403142Y254635D01*
X403106Y254695D01*
X403074Y254758D01*
X403045Y254822D01*
X403020Y254887D01*
X402999Y254954D01*
X402981Y255022D01*
X402968Y255091D01*
X402958Y255160D01*
X402952Y255230D01*
X402950Y255300D01*
D14*
X417819Y258472D02*
X417819Y264636D01*
X416278Y266177D01*
X413196Y266177D01*
X411655Y264636D01*
X411655Y258472D01*
X413196Y256931D01*
X416278Y256931D01*
X417819Y258472D01*
X414737Y260013D02*
X411655Y256931D01*
X408611Y264636D02*
X407070Y266177D01*
X403988Y266177D01*
X402447Y264636D01*
X402447Y263095D01*
X403988Y261554D01*
X405529Y261554D01*
X403988Y261554D02*
X402447Y260013D01*
X402447Y258472D01*
X403988Y256931D01*
X407070Y256931D01*
X408611Y258472D01*
D10*
X351100Y242400D02*
X351100Y240200D01*
X360100Y240200D02*
X360100Y242400D01*
D11*
X347350Y246946D02*
X342854Y246946D01*
X347350Y246946D02*
X347350Y249194D01*
X346601Y249943D01*
X345102Y249943D01*
X344353Y249194D01*
X344353Y246946D01*
X344353Y248445D02*
X342854Y249943D01*
X342854Y253798D02*
X347350Y253798D01*
X345102Y251550D01*
X345102Y254547D01*
X363854Y182491D02*
X368350Y182491D01*
X368350Y184739D01*
X367601Y185488D01*
X366102Y185488D01*
X365353Y184739D01*
X365353Y182491D01*
X365353Y183990D02*
X363854Y185488D01*
X363854Y187095D02*
X368350Y187095D01*
X363854Y187095D02*
X363854Y190092D01*
X364603Y191699D02*
X367601Y191699D01*
X368350Y192448D01*
X368350Y193947D01*
X367601Y194696D01*
X364603Y194696D01*
X363854Y193947D01*
X363854Y192448D01*
X364603Y191699D01*
X367601Y194696D01*
X367601Y197801D02*
X368350Y199300D01*
X367601Y197801D02*
X366102Y196303D01*
X364603Y196303D01*
X363854Y197052D01*
X363854Y198551D01*
X364603Y199300D01*
X365353Y199300D01*
X366102Y198551D01*
X366102Y196303D01*
X364603Y200907D02*
X367601Y200907D01*
X368350Y201656D01*
X368350Y203155D01*
X367601Y203904D01*
X364603Y203904D01*
X363854Y203155D01*
X363854Y201656D01*
X364603Y200907D01*
X367601Y203904D01*
X367601Y205511D02*
X368350Y206260D01*
X368350Y207759D01*
X367601Y208508D01*
X366851Y208508D01*
X366102Y207759D01*
X366102Y207009D01*
X366102Y207759D02*
X365353Y208508D01*
X364603Y208508D01*
X363854Y207759D01*
X363854Y206260D01*
X364603Y205511D01*
X363854Y210115D02*
X368350Y210115D01*
X368350Y213112D01*
X366102Y211613D02*
X366102Y210115D01*
X363854Y214718D02*
X368350Y214718D01*
X368350Y216966D01*
X367601Y217716D01*
X366102Y217716D01*
X365353Y216966D01*
X365353Y214718D01*
X365353Y216217D02*
X363854Y217716D01*
X366102Y219322D02*
X366102Y222320D01*
X364603Y223926D02*
X367601Y223926D01*
X368350Y224676D01*
X368350Y226174D01*
X367601Y226923D01*
X364603Y226923D01*
X363854Y226174D01*
X363854Y224676D01*
X364603Y223926D01*
X367601Y226923D01*
X368350Y228530D02*
X368350Y231527D01*
X367601Y231527D01*
X364603Y228530D01*
X363854Y228530D01*
X364603Y233134D02*
X367601Y233134D01*
X368350Y233883D01*
X368350Y235382D01*
X367601Y236131D01*
X364603Y236131D01*
X363854Y235382D01*
X363854Y233883D01*
X364603Y233134D01*
X367601Y236131D01*
X368350Y237738D02*
X363854Y237738D01*
X368350Y237738D02*
X368350Y239986D01*
X367601Y240735D01*
X366102Y240735D01*
X365353Y239986D01*
X365353Y237738D01*
X365353Y239237D02*
X363854Y240735D01*
X363854Y244590D02*
X368350Y244590D01*
X366102Y242342D01*
X366102Y245339D01*
X368350Y246946D02*
X368350Y249943D01*
X367601Y249943D01*
X364603Y246946D01*
X363854Y246946D01*
X363854Y251550D02*
X368350Y251550D01*
X363854Y251550D02*
X363854Y254547D01*
D13*
X137880Y88000D02*
X137880Y39000D01*
X137880Y88000D02*
X116120Y88000D01*
X116120Y39000D01*
X137880Y39000D01*
D16*
X130380Y80500D03*
D17*
X168530Y82550D03*
D14*
X173149Y101922D02*
X173149Y109627D01*
X173149Y101922D02*
X171608Y100381D01*
X168526Y100381D01*
X166985Y101922D01*
X166985Y109627D01*
X163941Y109627D02*
X157777Y109627D01*
X163941Y109627D02*
X163941Y105004D01*
X160859Y106545D01*
X159318Y106545D01*
X157777Y105004D01*
X157777Y101922D01*
X159318Y100381D01*
X162400Y100381D01*
X163941Y101922D01*
D11*
X279950Y228702D02*
X279201Y229451D01*
X279950Y228702D02*
X279950Y227203D01*
X279201Y226454D01*
X276203Y226454D01*
X275454Y227203D01*
X275454Y228702D01*
X276203Y229451D01*
X279201Y231058D02*
X279950Y231807D01*
X279950Y233306D01*
X279201Y234055D01*
X278451Y234055D01*
X277702Y233306D01*
X276953Y234055D01*
X276203Y234055D01*
X275454Y233306D01*
X275454Y231807D01*
X276203Y231058D01*
X276953Y231058D01*
X277702Y231807D01*
X278451Y231058D01*
X279201Y231058D01*
X277702Y231807D02*
X277702Y233306D01*
X257950Y228702D02*
X257201Y229451D01*
X257950Y228702D02*
X257950Y227203D01*
X257201Y226454D01*
X254203Y226454D01*
X253454Y227203D01*
X253454Y228702D01*
X254203Y229451D01*
X255702Y229451D01*
X255702Y227953D01*
X253454Y231058D02*
X257950Y231058D01*
X257950Y233306D01*
X257201Y234055D01*
X255702Y234055D01*
X254953Y233306D01*
X254953Y231058D01*
X254953Y232557D02*
X253454Y234055D01*
X253454Y235662D02*
X257950Y235662D01*
X256451Y237160D01*
X257950Y238659D01*
X253454Y238659D01*
X256451Y240266D02*
X257950Y241764D01*
X253454Y241764D01*
X253454Y240266D02*
X253454Y243263D01*
X257201Y244870D02*
X257950Y245619D01*
X257950Y247118D01*
X257201Y247867D01*
X256451Y247867D01*
X255702Y247118D01*
X254953Y247867D01*
X254203Y247867D01*
X253454Y247118D01*
X253454Y245619D01*
X254203Y244870D01*
X254953Y244870D01*
X255702Y245619D01*
X256451Y244870D01*
X257201Y244870D01*
X255702Y245619D02*
X255702Y247118D01*
X257201Y249474D02*
X257950Y250223D01*
X257950Y251721D01*
X257201Y252471D01*
X256451Y252471D01*
X255702Y251721D01*
X254953Y252471D01*
X254203Y252471D01*
X253454Y251721D01*
X253454Y250223D01*
X254203Y249474D01*
X254953Y249474D01*
X255702Y250223D01*
X256451Y249474D01*
X257201Y249474D01*
X255702Y250223D02*
X255702Y251721D01*
X257950Y256325D02*
X257201Y257075D01*
X257950Y256325D02*
X257950Y254827D01*
X257201Y254077D01*
X254203Y254077D01*
X253454Y254827D01*
X253454Y256325D01*
X254203Y257075D01*
X257201Y258681D02*
X257950Y259431D01*
X257950Y260929D01*
X257201Y261679D01*
X256451Y261679D01*
X255702Y260929D01*
X254953Y261679D01*
X254203Y261679D01*
X253454Y260929D01*
X253454Y259431D01*
X254203Y258681D01*
X254953Y258681D01*
X255702Y259431D01*
X256451Y258681D01*
X257201Y258681D01*
X255702Y259431D02*
X255702Y260929D01*
X256451Y263285D02*
X257950Y264784D01*
X253454Y264784D01*
X253454Y266282D02*
X253454Y263285D01*
X257950Y267889D02*
X257950Y270886D01*
X257950Y267889D02*
X253454Y267889D01*
X253454Y270886D01*
X255702Y269388D02*
X255702Y267889D01*
X253454Y274741D02*
X257950Y274741D01*
X255702Y272493D01*
X255702Y275490D01*
X257950Y277097D02*
X257950Y280094D01*
X257201Y280094D01*
X254203Y277097D01*
X253454Y277097D01*
X257950Y281701D02*
X257950Y284698D01*
X257950Y281701D02*
X255702Y281701D01*
X256451Y283199D01*
X256451Y283949D01*
X255702Y284698D01*
X254203Y284698D01*
X253454Y283949D01*
X253454Y282450D01*
X254203Y281701D01*
X253454Y286305D02*
X257950Y286305D01*
X254953Y286305D02*
X257950Y289302D01*
X255702Y287054D02*
X253454Y289302D01*
X257950Y290909D02*
X257950Y293906D01*
X257950Y290909D02*
X253454Y290909D01*
X253454Y293906D01*
X255702Y292407D02*
X255702Y290909D01*
X256451Y295513D02*
X257950Y297011D01*
X253454Y297011D01*
X253454Y295513D02*
X253454Y298510D01*
X256451Y300117D02*
X257950Y301615D01*
X253454Y301615D01*
X253454Y300117D02*
X253454Y303114D01*
X253454Y304720D02*
X257950Y304720D01*
X253454Y304720D02*
X253454Y306968D01*
X254203Y307718D01*
X257201Y307718D01*
X257950Y306968D01*
X257950Y304720D01*
X253801Y229451D02*
X254550Y228702D01*
X254550Y227203D01*
X253801Y226454D01*
X250803Y226454D01*
X250054Y227203D01*
X250054Y228702D01*
X250803Y229451D01*
X253051Y231058D02*
X254550Y232557D01*
X250054Y232557D01*
X250054Y234055D02*
X250054Y231058D01*
X250803Y235662D02*
X253801Y235662D01*
X254550Y236411D01*
X254550Y237910D01*
X253801Y238659D01*
X250803Y238659D01*
X250054Y237910D01*
X250054Y236411D01*
X250803Y235662D01*
X253801Y238659D01*
X232550Y228702D02*
X231801Y229451D01*
X232550Y228702D02*
X232550Y227203D01*
X231801Y226454D01*
X228803Y226454D01*
X228054Y227203D01*
X228054Y228702D01*
X228803Y229451D01*
X230302Y229451D01*
X230302Y227953D01*
X228054Y231058D02*
X232550Y231058D01*
X232550Y233306D01*
X231801Y234055D01*
X230302Y234055D01*
X229553Y233306D01*
X229553Y231058D01*
X229553Y232557D02*
X228054Y234055D01*
X228054Y235662D02*
X232550Y235662D01*
X231051Y237160D01*
X232550Y238659D01*
X228054Y238659D01*
X231051Y240266D02*
X232550Y241764D01*
X228054Y241764D01*
X228054Y240266D02*
X228054Y243263D01*
X231801Y244870D02*
X232550Y245619D01*
X232550Y247118D01*
X231801Y247867D01*
X231051Y247867D01*
X230302Y247118D01*
X229553Y247867D01*
X228803Y247867D01*
X228054Y247118D01*
X228054Y245619D01*
X228803Y244870D01*
X229553Y244870D01*
X230302Y245619D01*
X231051Y244870D01*
X231801Y244870D01*
X230302Y245619D02*
X230302Y247118D01*
X231801Y249474D02*
X232550Y250223D01*
X232550Y251721D01*
X231801Y252471D01*
X231051Y252471D01*
X230302Y251721D01*
X229553Y252471D01*
X228803Y252471D01*
X228054Y251721D01*
X228054Y250223D01*
X228803Y249474D01*
X229553Y249474D01*
X230302Y250223D01*
X231051Y249474D01*
X231801Y249474D01*
X230302Y250223D02*
X230302Y251721D01*
X232550Y256325D02*
X231801Y257075D01*
X232550Y256325D02*
X232550Y254827D01*
X231801Y254077D01*
X228803Y254077D01*
X228054Y254827D01*
X228054Y256325D01*
X228803Y257075D01*
X231801Y258681D02*
X232550Y259431D01*
X232550Y260929D01*
X231801Y261679D01*
X231051Y261679D01*
X230302Y260929D01*
X229553Y261679D01*
X228803Y261679D01*
X228054Y260929D01*
X228054Y259431D01*
X228803Y258681D01*
X229553Y258681D01*
X230302Y259431D01*
X231051Y258681D01*
X231801Y258681D01*
X230302Y259431D02*
X230302Y260929D01*
X231051Y263285D02*
X232550Y264784D01*
X228054Y264784D01*
X228054Y266282D02*
X228054Y263285D01*
X232550Y267889D02*
X232550Y270886D01*
X232550Y267889D02*
X228054Y267889D01*
X228054Y270886D01*
X230302Y269388D02*
X230302Y267889D01*
X228054Y274741D02*
X232550Y274741D01*
X230302Y272493D01*
X230302Y275490D01*
X232550Y277097D02*
X232550Y280094D01*
X231801Y280094D01*
X228803Y277097D01*
X228054Y277097D01*
X232550Y281701D02*
X232550Y284698D01*
X232550Y281701D02*
X230302Y281701D01*
X231051Y283199D01*
X231051Y283949D01*
X230302Y284698D01*
X228803Y284698D01*
X228054Y283949D01*
X228054Y282450D01*
X228803Y281701D01*
X228054Y286305D02*
X232550Y286305D01*
X229553Y286305D02*
X232550Y289302D01*
X230302Y287054D02*
X228054Y289302D01*
X232550Y290909D02*
X232550Y293906D01*
X232550Y290909D02*
X228054Y290909D01*
X228054Y293906D01*
X230302Y292407D02*
X230302Y290909D01*
X231051Y295513D02*
X232550Y297011D01*
X228054Y297011D01*
X228054Y295513D02*
X228054Y298510D01*
X231051Y300117D02*
X232550Y301615D01*
X228054Y301615D01*
X228054Y300117D02*
X228054Y303114D01*
X228054Y304720D02*
X232550Y304720D01*
X228054Y304720D02*
X228054Y306968D01*
X228803Y307718D01*
X231801Y307718D01*
X232550Y306968D01*
X232550Y304720D01*
X368198Y118250D02*
X367449Y117501D01*
X368198Y118250D02*
X369697Y118250D01*
X370446Y117501D01*
X370446Y114503D01*
X369697Y113754D01*
X368198Y113754D01*
X367449Y114503D01*
X367449Y116002D01*
X368947Y116002D01*
X365842Y113754D02*
X365842Y118250D01*
X363594Y118250D01*
X362845Y117501D01*
X362845Y116002D01*
X363594Y115253D01*
X365842Y115253D01*
X364344Y115253D02*
X362845Y113754D01*
X361238Y113754D02*
X361238Y118250D01*
X359740Y116751D01*
X358241Y118250D01*
X358241Y113754D01*
X356634Y116751D02*
X355136Y118250D01*
X355136Y113754D01*
X356634Y113754D02*
X353637Y113754D01*
X352030Y117501D02*
X351281Y118250D01*
X349782Y118250D01*
X349033Y117501D01*
X349033Y116751D01*
X349782Y116002D01*
X349033Y115253D01*
X349033Y114503D01*
X349782Y113754D01*
X351281Y113754D01*
X352030Y114503D01*
X352030Y115253D01*
X351281Y116002D01*
X352030Y116751D01*
X352030Y117501D01*
X351281Y116002D02*
X349782Y116002D01*
X347426Y117501D02*
X346677Y118250D01*
X345179Y118250D01*
X344429Y117501D01*
X344429Y116751D01*
X345179Y116002D01*
X344429Y115253D01*
X344429Y114503D01*
X345179Y113754D01*
X346677Y113754D01*
X347426Y114503D01*
X347426Y115253D01*
X346677Y116002D01*
X347426Y116751D01*
X347426Y117501D01*
X346677Y116002D02*
X345179Y116002D01*
X340575Y118250D02*
X339825Y117501D01*
X340575Y118250D02*
X342073Y118250D01*
X342823Y117501D01*
X342823Y114503D01*
X342073Y113754D01*
X340575Y113754D01*
X339825Y114503D01*
X338219Y117501D02*
X337469Y118250D01*
X335971Y118250D01*
X335221Y117501D01*
X335221Y116751D01*
X335971Y116002D01*
X335221Y115253D01*
X335221Y114503D01*
X335971Y113754D01*
X337469Y113754D01*
X338219Y114503D01*
X338219Y115253D01*
X337469Y116002D01*
X338219Y116751D01*
X338219Y117501D01*
X337469Y116002D02*
X335971Y116002D01*
X333615Y116751D02*
X332116Y118250D01*
X332116Y113754D01*
X330618Y113754D02*
X333615Y113754D01*
X329011Y118250D02*
X326014Y118250D01*
X329011Y118250D02*
X329011Y113754D01*
X326014Y113754D01*
X327512Y116002D02*
X329011Y116002D01*
X322159Y113754D02*
X322159Y118250D01*
X324407Y116002D01*
X321410Y116002D01*
X319803Y118250D02*
X316806Y118250D01*
X316806Y117501D01*
X319803Y114503D01*
X319803Y113754D01*
X315199Y118250D02*
X312202Y118250D01*
X315199Y118250D02*
X315199Y116002D01*
X313701Y116751D01*
X312951Y116751D01*
X312202Y116002D01*
X312202Y114503D01*
X312951Y113754D01*
X314450Y113754D01*
X315199Y114503D01*
X310595Y113754D02*
X310595Y118250D01*
X310595Y115253D02*
X307598Y118250D01*
X309846Y116002D02*
X307598Y113754D01*
X305991Y118250D02*
X302994Y118250D01*
X305991Y118250D02*
X305991Y113754D01*
X302994Y113754D01*
X304493Y116002D02*
X305991Y116002D01*
X301387Y116751D02*
X299889Y118250D01*
X299889Y113754D01*
X301387Y113754D02*
X298390Y113754D01*
X296784Y116751D02*
X295285Y118250D01*
X295285Y113754D01*
X296784Y113754D02*
X293786Y113754D01*
X292180Y113754D02*
X292180Y118250D01*
X292180Y113754D02*
X289932Y113754D01*
X289182Y114503D01*
X289182Y117501D01*
X289932Y118250D01*
X292180Y118250D01*
X228950Y228902D02*
X228201Y229651D01*
X228950Y228902D02*
X228950Y227403D01*
X228201Y226654D01*
X225203Y226654D01*
X224454Y227403D01*
X224454Y228902D01*
X225203Y229651D01*
X227451Y231258D02*
X228950Y232757D01*
X224454Y232757D01*
X224454Y234255D02*
X224454Y231258D01*
X228201Y235862D02*
X228950Y236611D01*
X228950Y238110D01*
X228201Y238859D01*
X227451Y238859D01*
X226702Y238110D01*
X226702Y237360D01*
X226702Y238110D02*
X225953Y238859D01*
X225203Y238859D01*
X224454Y238110D01*
X224454Y236611D01*
X225203Y235862D01*
X206601Y226654D02*
X203603Y226654D01*
X206601Y226654D02*
X207350Y227403D01*
X207350Y228902D01*
X206601Y229651D01*
X203603Y229651D01*
X202854Y228902D01*
X202854Y227403D01*
X203603Y226654D01*
X206601Y229651D01*
X206601Y232757D02*
X207350Y234255D01*
X206601Y232757D02*
X205102Y231258D01*
X203603Y231258D01*
X202854Y232007D01*
X202854Y233506D01*
X203603Y234255D01*
X204353Y234255D01*
X205102Y233506D01*
X205102Y231258D01*
X203603Y235862D02*
X206601Y235862D01*
X207350Y236611D01*
X207350Y238110D01*
X206601Y238859D01*
X203603Y238859D01*
X202854Y238110D01*
X202854Y236611D01*
X203603Y235862D01*
X206601Y238859D01*
X206601Y240466D02*
X207350Y241215D01*
X207350Y242714D01*
X206601Y243463D01*
X205851Y243463D01*
X205102Y242714D01*
X205102Y241964D01*
X205102Y242714D02*
X204353Y243463D01*
X203603Y243463D01*
X202854Y242714D01*
X202854Y241215D01*
X203603Y240466D01*
X206601Y245070D02*
X207350Y245819D01*
X207350Y247318D01*
X206601Y248067D01*
X205851Y248067D01*
X205102Y247318D01*
X205102Y246568D01*
X205102Y247318D02*
X204353Y248067D01*
X203603Y248067D01*
X202854Y247318D01*
X202854Y245819D01*
X203603Y245070D01*
X207350Y251921D02*
X206601Y252671D01*
X207350Y251921D02*
X207350Y250423D01*
X206601Y249674D01*
X203603Y249674D01*
X202854Y250423D01*
X202854Y251921D01*
X203603Y252671D01*
X205102Y252671D01*
X205102Y251172D01*
X205851Y254277D02*
X207350Y255776D01*
X202854Y255776D01*
X202854Y254277D02*
X202854Y257275D01*
X203603Y258881D02*
X206601Y258881D01*
X207350Y259631D01*
X207350Y261129D01*
X206601Y261879D01*
X203603Y261879D01*
X202854Y261129D01*
X202854Y259631D01*
X203603Y258881D01*
X206601Y261879D01*
X207350Y265733D02*
X202854Y265733D01*
X205102Y263485D02*
X207350Y265733D01*
X205102Y266482D02*
X205102Y263485D01*
X207350Y268089D02*
X207350Y271086D01*
X206601Y271086D01*
X203603Y268089D01*
X202854Y268089D01*
X202854Y271086D01*
X202854Y272693D02*
X205851Y272693D01*
X207350Y274192D01*
X205851Y275690D01*
X202854Y275690D01*
X205102Y275690D02*
X205102Y272693D01*
X202854Y278796D02*
X207350Y278796D01*
X207350Y280294D02*
X207350Y277297D01*
X202854Y281901D02*
X202854Y284898D01*
X202854Y281901D02*
X205851Y284898D01*
X206601Y284898D01*
X207350Y284149D01*
X207350Y282650D01*
X206601Y281901D01*
X205851Y286505D02*
X202854Y286505D01*
X205851Y286505D02*
X207350Y288003D01*
X205851Y289502D01*
X202854Y289502D01*
X205102Y289502D02*
X205102Y286505D01*
D10*
X195000Y242800D02*
X195000Y239800D01*
X186000Y239800D02*
X186000Y242800D01*
D11*
X204734Y227823D02*
X205654Y226903D01*
X205654Y225064D01*
X204734Y224144D01*
X201056Y224144D01*
X200136Y225064D01*
X200136Y226903D01*
X201056Y227823D01*
X203814Y229688D02*
X205654Y231527D01*
X200136Y231527D01*
X200136Y229688D02*
X200136Y233366D01*
X204734Y237071D02*
X205654Y238910D01*
X204734Y237071D02*
X202895Y235232D01*
X201056Y235232D01*
X200136Y236151D01*
X200136Y237990D01*
X201056Y238910D01*
X201975Y238910D01*
X202895Y237990D01*
X202895Y235232D01*
X181187Y226931D02*
X180270Y227849D01*
X181187Y226931D02*
X181187Y225096D01*
X180270Y224178D01*
X176599Y224178D01*
X175682Y225096D01*
X175682Y226931D01*
X176599Y227849D01*
X181187Y232464D02*
X180270Y233382D01*
X181187Y232464D02*
X181187Y230629D01*
X180270Y229711D01*
X176599Y229711D01*
X175682Y230629D01*
X175682Y232464D01*
X176599Y233382D01*
X176599Y235244D02*
X180270Y235244D01*
X181187Y236162D01*
X181187Y237997D01*
X180270Y238915D01*
X176599Y238915D01*
X175682Y237997D01*
X175682Y236162D01*
X176599Y235244D01*
X180270Y238915D01*
X180270Y242612D02*
X181187Y244447D01*
X180270Y242612D02*
X178434Y240777D01*
X176599Y240777D01*
X175682Y241695D01*
X175682Y243530D01*
X176599Y244447D01*
X177517Y244447D01*
X178434Y243530D01*
X178434Y240777D01*
X176599Y246310D02*
X180270Y246310D01*
X181187Y247228D01*
X181187Y249063D01*
X180270Y249980D01*
X176599Y249980D01*
X175682Y249063D01*
X175682Y247228D01*
X176599Y246310D01*
X180270Y249980D01*
X180270Y251843D02*
X181187Y252760D01*
X181187Y254596D01*
X180270Y255513D01*
X179352Y255513D01*
X178434Y254596D01*
X178434Y253678D01*
X178434Y254596D02*
X177517Y255513D01*
X176599Y255513D01*
X175682Y254596D01*
X175682Y252760D01*
X176599Y251843D01*
X181187Y257376D02*
X181187Y261046D01*
X180270Y261046D01*
X176599Y257376D01*
X175682Y257376D01*
X175682Y261046D01*
X175682Y262909D02*
X181187Y262909D01*
X181187Y265661D01*
X180270Y266579D01*
X178434Y266579D01*
X177517Y265661D01*
X177517Y262909D01*
X177517Y264744D02*
X175682Y266579D01*
X180270Y268441D02*
X181187Y268441D01*
X180270Y268441D02*
X178434Y270277D01*
X180270Y272112D01*
X181187Y272112D01*
X178434Y270277D02*
X175682Y270277D01*
X181187Y273974D02*
X181187Y277645D01*
X181187Y273974D02*
X178434Y273974D01*
X179352Y275809D01*
X179352Y276727D01*
X178434Y277645D01*
X176599Y277645D01*
X175682Y276727D01*
X175682Y274892D01*
X176599Y273974D01*
X177517Y279507D02*
X181187Y279507D01*
X177517Y279507D02*
X175682Y281342D01*
X177517Y283178D01*
X181187Y283178D01*
X180270Y285040D02*
X181187Y285958D01*
X181187Y287793D01*
X180270Y288710D01*
X179352Y288710D01*
X178434Y287793D01*
X177517Y288710D01*
X176599Y288710D01*
X175682Y287793D01*
X175682Y285958D01*
X176599Y285040D01*
X177517Y285040D01*
X178434Y285958D01*
X179352Y285040D01*
X180270Y285040D01*
X178434Y285958D02*
X178434Y287793D01*
X175682Y290573D02*
X181187Y290573D01*
X181187Y293326D01*
X180270Y294243D01*
X179352Y294243D01*
X178434Y293326D01*
X177517Y294243D01*
X176599Y294243D01*
X175682Y293326D01*
X175682Y290573D01*
X178434Y290573D02*
X178434Y293326D01*
X175682Y296106D02*
X181187Y296106D01*
X181187Y298859D01*
X180270Y299776D01*
X179352Y299776D01*
X178434Y298859D01*
X177517Y299776D01*
X176599Y299776D01*
X175682Y298859D01*
X175682Y296106D01*
X178434Y296106D02*
X178434Y298859D01*
X179352Y301639D02*
X181187Y303474D01*
X175682Y303474D01*
X175682Y301639D02*
X175682Y305309D01*
X176599Y307172D02*
X180270Y307172D01*
X181187Y308089D01*
X181187Y309924D01*
X180270Y310842D01*
X176599Y310842D01*
X175682Y309924D01*
X175682Y308089D01*
X176599Y307172D01*
X180270Y310842D01*
X181187Y312704D02*
X181187Y316375D01*
X181187Y312704D02*
X178434Y312704D01*
X179352Y314540D01*
X179352Y315457D01*
X178434Y316375D01*
X176599Y316375D01*
X175682Y315457D01*
X175682Y313622D01*
X176599Y312704D01*
D10*
X169600Y242800D02*
X169600Y239800D01*
X160600Y239800D02*
X160600Y242800D01*
D11*
X179334Y227823D02*
X180254Y226903D01*
X180254Y225064D01*
X179334Y224144D01*
X175656Y224144D01*
X174736Y225064D01*
X174736Y226903D01*
X175656Y227823D01*
X178414Y229688D02*
X180254Y231527D01*
X174736Y231527D01*
X174736Y229688D02*
X174736Y233366D01*
X180254Y235232D02*
X180254Y238910D01*
X179334Y238910D01*
X175656Y235232D01*
X174736Y235232D01*
X155787Y226931D02*
X154870Y227849D01*
X155787Y226931D02*
X155787Y225096D01*
X154870Y224178D01*
X151199Y224178D01*
X150282Y225096D01*
X150282Y226931D01*
X151199Y227849D01*
X155787Y232464D02*
X154870Y233382D01*
X155787Y232464D02*
X155787Y230629D01*
X154870Y229711D01*
X151199Y229711D01*
X150282Y230629D01*
X150282Y232464D01*
X151199Y233382D01*
X151199Y235244D02*
X154870Y235244D01*
X155787Y236162D01*
X155787Y237997D01*
X154870Y238915D01*
X151199Y238915D01*
X150282Y237997D01*
X150282Y236162D01*
X151199Y235244D01*
X154870Y238915D01*
X154870Y242612D02*
X155787Y244447D01*
X154870Y242612D02*
X153034Y240777D01*
X151199Y240777D01*
X150282Y241695D01*
X150282Y243530D01*
X151199Y244447D01*
X152117Y244447D01*
X153034Y243530D01*
X153034Y240777D01*
X151199Y246310D02*
X154870Y246310D01*
X155787Y247228D01*
X155787Y249063D01*
X154870Y249980D01*
X151199Y249980D01*
X150282Y249063D01*
X150282Y247228D01*
X151199Y246310D01*
X154870Y249980D01*
X154870Y251843D02*
X155787Y252760D01*
X155787Y254596D01*
X154870Y255513D01*
X153952Y255513D01*
X153034Y254596D01*
X153034Y253678D01*
X153034Y254596D02*
X152117Y255513D01*
X151199Y255513D01*
X150282Y254596D01*
X150282Y252760D01*
X151199Y251843D01*
X155787Y257376D02*
X155787Y261046D01*
X154870Y261046D01*
X151199Y257376D01*
X150282Y257376D01*
X150282Y261046D01*
X150282Y262909D02*
X155787Y262909D01*
X155787Y265661D01*
X154870Y266579D01*
X153034Y266579D01*
X152117Y265661D01*
X152117Y262909D01*
X152117Y264744D02*
X150282Y266579D01*
X154870Y268441D02*
X155787Y268441D01*
X154870Y268441D02*
X153034Y270277D01*
X154870Y272112D01*
X155787Y272112D01*
X153034Y270277D02*
X150282Y270277D01*
X155787Y273974D02*
X155787Y277645D01*
X155787Y273974D02*
X153034Y273974D01*
X153952Y275809D01*
X153952Y276727D01*
X153034Y277645D01*
X151199Y277645D01*
X150282Y276727D01*
X150282Y274892D01*
X151199Y273974D01*
X152117Y279507D02*
X155787Y279507D01*
X152117Y279507D02*
X150282Y281342D01*
X152117Y283178D01*
X155787Y283178D01*
X154870Y285040D02*
X155787Y285958D01*
X155787Y287793D01*
X154870Y288710D01*
X153952Y288710D01*
X153034Y287793D01*
X152117Y288710D01*
X151199Y288710D01*
X150282Y287793D01*
X150282Y285958D01*
X151199Y285040D01*
X152117Y285040D01*
X153034Y285958D01*
X153952Y285040D01*
X154870Y285040D01*
X153034Y285958D02*
X153034Y287793D01*
X150282Y290573D02*
X155787Y290573D01*
X155787Y293326D01*
X154870Y294243D01*
X153952Y294243D01*
X153034Y293326D01*
X152117Y294243D01*
X151199Y294243D01*
X150282Y293326D01*
X150282Y290573D01*
X153034Y290573D02*
X153034Y293326D01*
X150282Y296106D02*
X155787Y296106D01*
X155787Y298859D01*
X154870Y299776D01*
X153952Y299776D01*
X153034Y298859D01*
X152117Y299776D01*
X151199Y299776D01*
X150282Y298859D01*
X150282Y296106D01*
X153034Y296106D02*
X153034Y298859D01*
X153952Y301639D02*
X155787Y303474D01*
X150282Y303474D01*
X150282Y301639D02*
X150282Y305309D01*
X151199Y307172D02*
X154870Y307172D01*
X155787Y308089D01*
X155787Y309924D01*
X154870Y310842D01*
X151199Y310842D01*
X150282Y309924D01*
X150282Y308089D01*
X151199Y307172D01*
X154870Y310842D01*
X155787Y312704D02*
X155787Y316375D01*
X155787Y312704D02*
X153034Y312704D01*
X153952Y314540D01*
X153952Y315457D01*
X153034Y316375D01*
X151199Y316375D01*
X150282Y315457D01*
X150282Y313622D01*
X151199Y312704D01*
D10*
X144200Y242800D02*
X144200Y239800D01*
X135200Y239800D02*
X135200Y242800D01*
D11*
X153934Y227823D02*
X154854Y226903D01*
X154854Y225064D01*
X153934Y224144D01*
X150256Y224144D01*
X149336Y225064D01*
X149336Y226903D01*
X150256Y227823D01*
X153014Y229688D02*
X154854Y231527D01*
X149336Y231527D01*
X149336Y229688D02*
X149336Y233366D01*
X153934Y235232D02*
X154854Y236151D01*
X154854Y237990D01*
X153934Y238910D01*
X153014Y238910D01*
X152095Y237990D01*
X151175Y238910D01*
X150256Y238910D01*
X149336Y237990D01*
X149336Y236151D01*
X150256Y235232D01*
X151175Y235232D01*
X152095Y236151D01*
X153014Y235232D01*
X153934Y235232D01*
X152095Y236151D02*
X152095Y237990D01*
X130387Y226931D02*
X129470Y227849D01*
X130387Y226931D02*
X130387Y225096D01*
X129470Y224178D01*
X125799Y224178D01*
X124882Y225096D01*
X124882Y226931D01*
X125799Y227849D01*
X130387Y232464D02*
X129470Y233382D01*
X130387Y232464D02*
X130387Y230629D01*
X129470Y229711D01*
X125799Y229711D01*
X124882Y230629D01*
X124882Y232464D01*
X125799Y233382D01*
X125799Y235244D02*
X129470Y235244D01*
X130387Y236162D01*
X130387Y237997D01*
X129470Y238915D01*
X125799Y238915D01*
X124882Y237997D01*
X124882Y236162D01*
X125799Y235244D01*
X129470Y238915D01*
X129470Y242612D02*
X130387Y244447D01*
X129470Y242612D02*
X127634Y240777D01*
X125799Y240777D01*
X124882Y241695D01*
X124882Y243530D01*
X125799Y244447D01*
X126717Y244447D01*
X127634Y243530D01*
X127634Y240777D01*
X125799Y246310D02*
X129470Y246310D01*
X130387Y247228D01*
X130387Y249063D01*
X129470Y249980D01*
X125799Y249980D01*
X124882Y249063D01*
X124882Y247228D01*
X125799Y246310D01*
X129470Y249980D01*
X129470Y251843D02*
X130387Y252760D01*
X130387Y254596D01*
X129470Y255513D01*
X128552Y255513D01*
X127634Y254596D01*
X127634Y253678D01*
X127634Y254596D02*
X126717Y255513D01*
X125799Y255513D01*
X124882Y254596D01*
X124882Y252760D01*
X125799Y251843D01*
X130387Y257376D02*
X130387Y261046D01*
X129470Y261046D01*
X125799Y257376D01*
X124882Y257376D01*
X124882Y261046D01*
X124882Y262909D02*
X130387Y262909D01*
X130387Y265661D01*
X129470Y266579D01*
X127634Y266579D01*
X126717Y265661D01*
X126717Y262909D01*
X126717Y264744D02*
X124882Y266579D01*
X129470Y268441D02*
X130387Y268441D01*
X129470Y268441D02*
X127634Y270277D01*
X129470Y272112D01*
X130387Y272112D01*
X127634Y270277D02*
X124882Y270277D01*
X130387Y273974D02*
X130387Y277645D01*
X130387Y273974D02*
X127634Y273974D01*
X128552Y275809D01*
X128552Y276727D01*
X127634Y277645D01*
X125799Y277645D01*
X124882Y276727D01*
X124882Y274892D01*
X125799Y273974D01*
X126717Y279507D02*
X130387Y279507D01*
X126717Y279507D02*
X124882Y281342D01*
X126717Y283178D01*
X130387Y283178D01*
X129470Y285040D02*
X130387Y285958D01*
X130387Y287793D01*
X129470Y288710D01*
X128552Y288710D01*
X127634Y287793D01*
X126717Y288710D01*
X125799Y288710D01*
X124882Y287793D01*
X124882Y285958D01*
X125799Y285040D01*
X126717Y285040D01*
X127634Y285958D01*
X128552Y285040D01*
X129470Y285040D01*
X127634Y285958D02*
X127634Y287793D01*
X124882Y290573D02*
X130387Y290573D01*
X130387Y293326D01*
X129470Y294243D01*
X128552Y294243D01*
X127634Y293326D01*
X126717Y294243D01*
X125799Y294243D01*
X124882Y293326D01*
X124882Y290573D01*
X127634Y290573D02*
X127634Y293326D01*
X124882Y296106D02*
X130387Y296106D01*
X130387Y298859D01*
X129470Y299776D01*
X128552Y299776D01*
X127634Y298859D01*
X126717Y299776D01*
X125799Y299776D01*
X124882Y298859D01*
X124882Y296106D01*
X127634Y296106D02*
X127634Y298859D01*
X128552Y301639D02*
X130387Y303474D01*
X124882Y303474D01*
X124882Y301639D02*
X124882Y305309D01*
X125799Y307172D02*
X129470Y307172D01*
X130387Y308089D01*
X130387Y309924D01*
X129470Y310842D01*
X125799Y310842D01*
X124882Y309924D01*
X124882Y308089D01*
X125799Y307172D01*
X129470Y310842D01*
X130387Y312704D02*
X130387Y316375D01*
X130387Y312704D02*
X127634Y312704D01*
X128552Y314540D01*
X128552Y315457D01*
X127634Y316375D01*
X125799Y316375D01*
X124882Y315457D01*
X124882Y313622D01*
X125799Y312704D01*
D10*
X118800Y242800D02*
X118800Y239800D01*
X109800Y239800D02*
X109800Y242800D01*
D11*
X128534Y227823D02*
X129454Y226903D01*
X129454Y225064D01*
X128534Y224144D01*
X124856Y224144D01*
X123936Y225064D01*
X123936Y226903D01*
X124856Y227823D01*
X123936Y229688D02*
X123936Y233366D01*
X123936Y229688D02*
X127614Y233366D01*
X128534Y233366D01*
X129454Y232447D01*
X129454Y230608D01*
X128534Y229688D01*
X128534Y235232D02*
X129454Y236151D01*
X129454Y237990D01*
X128534Y238910D01*
X127614Y238910D01*
X126695Y237990D01*
X126695Y237071D01*
X126695Y237990D02*
X125775Y238910D01*
X124856Y238910D01*
X123936Y237990D01*
X123936Y236151D01*
X124856Y235232D01*
X104987Y226931D02*
X104070Y227849D01*
X104987Y226931D02*
X104987Y225096D01*
X104070Y224178D01*
X100399Y224178D01*
X99482Y225096D01*
X99482Y226931D01*
X100399Y227849D01*
X104987Y232464D02*
X104070Y233382D01*
X104987Y232464D02*
X104987Y230629D01*
X104070Y229711D01*
X100399Y229711D01*
X99482Y230629D01*
X99482Y232464D01*
X100399Y233382D01*
X100399Y235244D02*
X104070Y235244D01*
X104987Y236162D01*
X104987Y237997D01*
X104070Y238915D01*
X100399Y238915D01*
X99482Y237997D01*
X99482Y236162D01*
X100399Y235244D01*
X104070Y238915D01*
X104070Y242612D02*
X104987Y244447D01*
X104070Y242612D02*
X102234Y240777D01*
X100399Y240777D01*
X99482Y241695D01*
X99482Y243530D01*
X100399Y244447D01*
X101317Y244447D01*
X102234Y243530D01*
X102234Y240777D01*
X100399Y246310D02*
X104070Y246310D01*
X104987Y247228D01*
X104987Y249063D01*
X104070Y249980D01*
X100399Y249980D01*
X99482Y249063D01*
X99482Y247228D01*
X100399Y246310D01*
X104070Y249980D01*
X104070Y251843D02*
X104987Y252760D01*
X104987Y254596D01*
X104070Y255513D01*
X103152Y255513D01*
X102234Y254596D01*
X102234Y253678D01*
X102234Y254596D02*
X101317Y255513D01*
X100399Y255513D01*
X99482Y254596D01*
X99482Y252760D01*
X100399Y251843D01*
X104987Y257376D02*
X104987Y261046D01*
X104070Y261046D01*
X100399Y257376D01*
X99482Y257376D01*
X99482Y261046D01*
X99482Y262909D02*
X104987Y262909D01*
X104987Y265661D01*
X104070Y266579D01*
X102234Y266579D01*
X101317Y265661D01*
X101317Y262909D01*
X101317Y264744D02*
X99482Y266579D01*
X104070Y268441D02*
X104987Y268441D01*
X104070Y268441D02*
X102234Y270277D01*
X104070Y272112D01*
X104987Y272112D01*
X102234Y270277D02*
X99482Y270277D01*
X104987Y273974D02*
X104987Y277645D01*
X104987Y273974D02*
X102234Y273974D01*
X103152Y275809D01*
X103152Y276727D01*
X102234Y277645D01*
X100399Y277645D01*
X99482Y276727D01*
X99482Y274892D01*
X100399Y273974D01*
X101317Y279507D02*
X104987Y279507D01*
X101317Y279507D02*
X99482Y281342D01*
X101317Y283178D01*
X104987Y283178D01*
X104070Y285040D02*
X104987Y285958D01*
X104987Y287793D01*
X104070Y288710D01*
X103152Y288710D01*
X102234Y287793D01*
X101317Y288710D01*
X100399Y288710D01*
X99482Y287793D01*
X99482Y285958D01*
X100399Y285040D01*
X101317Y285040D01*
X102234Y285958D01*
X103152Y285040D01*
X104070Y285040D01*
X102234Y285958D02*
X102234Y287793D01*
X99482Y290573D02*
X104987Y290573D01*
X104987Y293326D01*
X104070Y294243D01*
X103152Y294243D01*
X102234Y293326D01*
X101317Y294243D01*
X100399Y294243D01*
X99482Y293326D01*
X99482Y290573D01*
X102234Y290573D02*
X102234Y293326D01*
X99482Y296106D02*
X104987Y296106D01*
X104987Y298859D01*
X104070Y299776D01*
X103152Y299776D01*
X102234Y298859D01*
X101317Y299776D01*
X100399Y299776D01*
X99482Y298859D01*
X99482Y296106D01*
X102234Y296106D02*
X102234Y298859D01*
X103152Y301639D02*
X104987Y303474D01*
X99482Y303474D01*
X99482Y301639D02*
X99482Y305309D01*
X100399Y307172D02*
X104070Y307172D01*
X104987Y308089D01*
X104987Y309924D01*
X104070Y310842D01*
X100399Y310842D01*
X99482Y309924D01*
X99482Y308089D01*
X100399Y307172D01*
X104070Y310842D01*
X104987Y312704D02*
X104987Y316375D01*
X104987Y312704D02*
X102234Y312704D01*
X103152Y314540D01*
X103152Y315457D01*
X102234Y316375D01*
X100399Y316375D01*
X99482Y315457D01*
X99482Y313622D01*
X100399Y312704D01*
D10*
X93400Y242800D02*
X93400Y239800D01*
X84400Y239800D02*
X84400Y242800D01*
D11*
X103134Y227823D02*
X104054Y226903D01*
X104054Y225064D01*
X103134Y224144D01*
X99456Y224144D01*
X98536Y225064D01*
X98536Y226903D01*
X99456Y227823D01*
X98536Y229688D02*
X98536Y233366D01*
X98536Y229688D02*
X102214Y233366D01*
X103134Y233366D01*
X104054Y232447D01*
X104054Y230608D01*
X103134Y229688D01*
X104054Y237990D02*
X98536Y237990D01*
X101295Y235232D02*
X104054Y237990D01*
X101295Y238910D02*
X101295Y235232D01*
X79587Y226931D02*
X78670Y227849D01*
X79587Y226931D02*
X79587Y225096D01*
X78670Y224178D01*
X74999Y224178D01*
X74082Y225096D01*
X74082Y226931D01*
X74999Y227849D01*
X79587Y232464D02*
X78670Y233382D01*
X79587Y232464D02*
X79587Y230629D01*
X78670Y229711D01*
X74999Y229711D01*
X74082Y230629D01*
X74082Y232464D01*
X74999Y233382D01*
X74999Y235244D02*
X78670Y235244D01*
X79587Y236162D01*
X79587Y237997D01*
X78670Y238915D01*
X74999Y238915D01*
X74082Y237997D01*
X74082Y236162D01*
X74999Y235244D01*
X78670Y238915D01*
X78670Y242612D02*
X79587Y244447D01*
X78670Y242612D02*
X76834Y240777D01*
X74999Y240777D01*
X74082Y241695D01*
X74082Y243530D01*
X74999Y244447D01*
X75917Y244447D01*
X76834Y243530D01*
X76834Y240777D01*
X74999Y246310D02*
X78670Y246310D01*
X79587Y247228D01*
X79587Y249063D01*
X78670Y249980D01*
X74999Y249980D01*
X74082Y249063D01*
X74082Y247228D01*
X74999Y246310D01*
X78670Y249980D01*
X78670Y251843D02*
X79587Y252760D01*
X79587Y254596D01*
X78670Y255513D01*
X77752Y255513D01*
X76834Y254596D01*
X76834Y253678D01*
X76834Y254596D02*
X75917Y255513D01*
X74999Y255513D01*
X74082Y254596D01*
X74082Y252760D01*
X74999Y251843D01*
X79587Y257376D02*
X79587Y261046D01*
X78670Y261046D01*
X74999Y257376D01*
X74082Y257376D01*
X74082Y261046D01*
X74082Y262909D02*
X79587Y262909D01*
X79587Y265661D01*
X78670Y266579D01*
X76834Y266579D01*
X75917Y265661D01*
X75917Y262909D01*
X75917Y264744D02*
X74082Y266579D01*
X78670Y268441D02*
X79587Y268441D01*
X78670Y268441D02*
X76834Y270277D01*
X78670Y272112D01*
X79587Y272112D01*
X76834Y270277D02*
X74082Y270277D01*
X79587Y273974D02*
X79587Y277645D01*
X79587Y273974D02*
X76834Y273974D01*
X77752Y275809D01*
X77752Y276727D01*
X76834Y277645D01*
X74999Y277645D01*
X74082Y276727D01*
X74082Y274892D01*
X74999Y273974D01*
X75917Y279507D02*
X79587Y279507D01*
X75917Y279507D02*
X74082Y281342D01*
X75917Y283178D01*
X79587Y283178D01*
X78670Y285040D02*
X79587Y285958D01*
X79587Y287793D01*
X78670Y288710D01*
X77752Y288710D01*
X76834Y287793D01*
X75917Y288710D01*
X74999Y288710D01*
X74082Y287793D01*
X74082Y285958D01*
X74999Y285040D01*
X75917Y285040D01*
X76834Y285958D01*
X77752Y285040D01*
X78670Y285040D01*
X76834Y285958D02*
X76834Y287793D01*
X74082Y290573D02*
X79587Y290573D01*
X79587Y293326D01*
X78670Y294243D01*
X77752Y294243D01*
X76834Y293326D01*
X75917Y294243D01*
X74999Y294243D01*
X74082Y293326D01*
X74082Y290573D01*
X76834Y290573D02*
X76834Y293326D01*
X74082Y296106D02*
X79587Y296106D01*
X79587Y298859D01*
X78670Y299776D01*
X77752Y299776D01*
X76834Y298859D01*
X75917Y299776D01*
X74999Y299776D01*
X74082Y298859D01*
X74082Y296106D01*
X76834Y296106D02*
X76834Y298859D01*
X77752Y301639D02*
X79587Y303474D01*
X74082Y303474D01*
X74082Y301639D02*
X74082Y305309D01*
X74999Y307172D02*
X78670Y307172D01*
X79587Y308089D01*
X79587Y309924D01*
X78670Y310842D01*
X74999Y310842D01*
X74082Y309924D01*
X74082Y308089D01*
X74999Y307172D01*
X78670Y310842D01*
X79587Y312704D02*
X79587Y316375D01*
X79587Y312704D02*
X76834Y312704D01*
X77752Y314540D01*
X77752Y315457D01*
X76834Y316375D01*
X74999Y316375D01*
X74082Y315457D01*
X74082Y313622D01*
X74999Y312704D01*
D10*
X68000Y242800D02*
X68000Y239800D01*
X59000Y239800D02*
X59000Y242800D01*
D11*
X77734Y227823D02*
X78654Y226903D01*
X78654Y225064D01*
X77734Y224144D01*
X74056Y224144D01*
X73136Y225064D01*
X73136Y226903D01*
X74056Y227823D01*
X73136Y229688D02*
X73136Y233366D01*
X73136Y229688D02*
X76814Y233366D01*
X77734Y233366D01*
X78654Y232447D01*
X78654Y230608D01*
X77734Y229688D01*
X78654Y235232D02*
X78654Y238910D01*
X78654Y235232D02*
X75895Y235232D01*
X76814Y237071D01*
X76814Y237990D01*
X75895Y238910D01*
X74056Y238910D01*
X73136Y237990D01*
X73136Y236151D01*
X74056Y235232D01*
X54187Y226931D02*
X53270Y227849D01*
X54187Y226931D02*
X54187Y225096D01*
X53270Y224178D01*
X49599Y224178D01*
X48682Y225096D01*
X48682Y226931D01*
X49599Y227849D01*
X54187Y232464D02*
X53270Y233382D01*
X54187Y232464D02*
X54187Y230629D01*
X53270Y229711D01*
X49599Y229711D01*
X48682Y230629D01*
X48682Y232464D01*
X49599Y233382D01*
X49599Y235244D02*
X53270Y235244D01*
X54187Y236162D01*
X54187Y237997D01*
X53270Y238915D01*
X49599Y238915D01*
X48682Y237997D01*
X48682Y236162D01*
X49599Y235244D01*
X53270Y238915D01*
X53270Y242612D02*
X54187Y244447D01*
X53270Y242612D02*
X51434Y240777D01*
X49599Y240777D01*
X48682Y241695D01*
X48682Y243530D01*
X49599Y244447D01*
X50517Y244447D01*
X51434Y243530D01*
X51434Y240777D01*
X49599Y246310D02*
X53270Y246310D01*
X54187Y247228D01*
X54187Y249063D01*
X53270Y249980D01*
X49599Y249980D01*
X48682Y249063D01*
X48682Y247228D01*
X49599Y246310D01*
X53270Y249980D01*
X53270Y251843D02*
X54187Y252760D01*
X54187Y254596D01*
X53270Y255513D01*
X52352Y255513D01*
X51434Y254596D01*
X51434Y253678D01*
X51434Y254596D02*
X50517Y255513D01*
X49599Y255513D01*
X48682Y254596D01*
X48682Y252760D01*
X49599Y251843D01*
X54187Y257376D02*
X54187Y261046D01*
X53270Y261046D01*
X49599Y257376D01*
X48682Y257376D01*
X48682Y261046D01*
X48682Y262909D02*
X54187Y262909D01*
X54187Y265661D01*
X53270Y266579D01*
X51434Y266579D01*
X50517Y265661D01*
X50517Y262909D01*
X50517Y264744D02*
X48682Y266579D01*
X53270Y268441D02*
X54187Y268441D01*
X53270Y268441D02*
X51434Y270277D01*
X53270Y272112D01*
X54187Y272112D01*
X51434Y270277D02*
X48682Y270277D01*
X54187Y273974D02*
X54187Y277645D01*
X54187Y273974D02*
X51434Y273974D01*
X52352Y275809D01*
X52352Y276727D01*
X51434Y277645D01*
X49599Y277645D01*
X48682Y276727D01*
X48682Y274892D01*
X49599Y273974D01*
X50517Y279507D02*
X54187Y279507D01*
X50517Y279507D02*
X48682Y281342D01*
X50517Y283178D01*
X54187Y283178D01*
X53270Y285040D02*
X54187Y285958D01*
X54187Y287793D01*
X53270Y288710D01*
X52352Y288710D01*
X51434Y287793D01*
X50517Y288710D01*
X49599Y288710D01*
X48682Y287793D01*
X48682Y285958D01*
X49599Y285040D01*
X50517Y285040D01*
X51434Y285958D01*
X52352Y285040D01*
X53270Y285040D01*
X51434Y285958D02*
X51434Y287793D01*
X48682Y290573D02*
X54187Y290573D01*
X54187Y293326D01*
X53270Y294243D01*
X52352Y294243D01*
X51434Y293326D01*
X50517Y294243D01*
X49599Y294243D01*
X48682Y293326D01*
X48682Y290573D01*
X51434Y290573D02*
X51434Y293326D01*
X48682Y296106D02*
X54187Y296106D01*
X54187Y298859D01*
X53270Y299776D01*
X52352Y299776D01*
X51434Y298859D01*
X50517Y299776D01*
X49599Y299776D01*
X48682Y298859D01*
X48682Y296106D01*
X51434Y296106D02*
X51434Y298859D01*
X52352Y301639D02*
X54187Y303474D01*
X48682Y303474D01*
X48682Y301639D02*
X48682Y305309D01*
X49599Y307172D02*
X53270Y307172D01*
X54187Y308089D01*
X54187Y309924D01*
X53270Y310842D01*
X49599Y310842D01*
X48682Y309924D01*
X48682Y308089D01*
X49599Y307172D01*
X53270Y310842D01*
X54187Y312704D02*
X54187Y316375D01*
X54187Y312704D02*
X51434Y312704D01*
X52352Y314540D01*
X52352Y315457D01*
X51434Y316375D01*
X49599Y316375D01*
X48682Y315457D01*
X48682Y313622D01*
X49599Y312704D01*
D10*
X244200Y178100D02*
X244200Y152100D01*
X289200Y152100D01*
X289201Y152100D02*
X289521Y151920D01*
X289846Y151748D01*
X290175Y151584D01*
X290508Y151428D01*
X290845Y151281D01*
X291185Y151141D01*
X291529Y151010D01*
X291875Y150887D01*
X292225Y150773D01*
X292577Y150668D01*
X292932Y150571D01*
X293289Y150483D01*
X293648Y150404D01*
X294009Y150333D01*
X294371Y150272D01*
X294735Y150219D01*
X295100Y150175D01*
X295466Y150140D01*
X295833Y150114D01*
X296200Y150098D01*
X296568Y150090D01*
X296936Y150091D01*
X297303Y150101D01*
X297671Y150120D01*
X298037Y150148D01*
X298403Y150185D01*
X298768Y150231D01*
X299131Y150286D01*
X299493Y150350D01*
X299854Y150423D01*
X300212Y150504D01*
X300569Y150595D01*
X300923Y150694D01*
X301275Y150801D01*
X301624Y150917D01*
X301969Y151042D01*
X302312Y151175D01*
X302652Y151317D01*
X302987Y151466D01*
X303319Y151624D01*
X303647Y151790D01*
X303971Y151964D01*
X304291Y152146D01*
X304606Y152336D01*
X304916Y152533D01*
X305222Y152738D01*
X305522Y152950D01*
X305817Y153170D01*
X306106Y153397D01*
X306390Y153631D01*
X306668Y153871D01*
X306940Y154119D01*
X307206Y154372D01*
X307466Y154633D01*
X307719Y154900D01*
X307965Y155172D01*
X308205Y155451D01*
X308438Y155736D01*
X308664Y156026D01*
X308882Y156321D01*
X309094Y156622D01*
X309298Y156928D01*
X309494Y157239D01*
X309683Y157555D01*
X309864Y157875D01*
X310037Y158199D01*
X310202Y158528D01*
X310359Y158860D01*
X310507Y159197D01*
X310648Y159536D01*
X310780Y159880D01*
X310904Y160226D01*
X311019Y160575D01*
X311125Y160927D01*
X311223Y161282D01*
X311312Y161638D01*
X311393Y161997D01*
X311464Y162358D01*
X311527Y162720D01*
X311581Y163084D01*
X311626Y163449D01*
X311662Y163815D01*
X311689Y164181D01*
X311707Y164549D01*
X311716Y164916D01*
X311716Y165284D01*
X311707Y165651D01*
X311689Y166019D01*
X311662Y166385D01*
X311626Y166751D01*
X311581Y167116D01*
X311527Y167480D01*
X311464Y167842D01*
X311393Y168203D01*
X311312Y168562D01*
X311223Y168918D01*
X311125Y169273D01*
X311019Y169625D01*
X310904Y169974D01*
X310780Y170320D01*
X310648Y170664D01*
X310507Y171003D01*
X310359Y171340D01*
X310202Y171672D01*
X310037Y172001D01*
X309864Y172325D01*
X309683Y172645D01*
X309494Y172961D01*
X309298Y173272D01*
X309094Y173578D01*
X308882Y173879D01*
X308664Y174174D01*
X308438Y174464D01*
X308205Y174749D01*
X307965Y175028D01*
X307719Y175300D01*
X307466Y175567D01*
X307206Y175828D01*
X306940Y176081D01*
X306668Y176329D01*
X306390Y176569D01*
X306106Y176803D01*
X305817Y177030D01*
X305522Y177250D01*
X305222Y177462D01*
X304916Y177667D01*
X304606Y177864D01*
X304291Y178054D01*
X303971Y178236D01*
X303647Y178410D01*
X303319Y178576D01*
X302987Y178734D01*
X302652Y178883D01*
X302312Y179025D01*
X301969Y179158D01*
X301624Y179283D01*
X301275Y179399D01*
X300923Y179506D01*
X300569Y179605D01*
X300212Y179696D01*
X299854Y179777D01*
X299493Y179850D01*
X299131Y179914D01*
X298768Y179969D01*
X298403Y180015D01*
X298037Y180052D01*
X297671Y180080D01*
X297303Y180099D01*
X296936Y180109D01*
X296568Y180110D01*
X296200Y180102D01*
X295833Y180086D01*
X295466Y180060D01*
X295100Y180025D01*
X294735Y179981D01*
X294371Y179928D01*
X294009Y179867D01*
X293648Y179796D01*
X293289Y179717D01*
X292932Y179629D01*
X292577Y179532D01*
X292225Y179427D01*
X291875Y179313D01*
X291529Y179190D01*
X291185Y179059D01*
X290845Y178919D01*
X290508Y178772D01*
X290175Y178616D01*
X289846Y178452D01*
X289521Y178280D01*
X289201Y178100D01*
X289200Y178100D02*
X244200Y178100D01*
D12*
X317353Y167305D02*
X321256Y163402D01*
X317353Y167305D02*
X317353Y155597D01*
X321256Y155597D02*
X313450Y155597D01*
X286199Y185615D02*
X286199Y197313D01*
X286199Y185615D02*
X280350Y185615D01*
X278400Y187565D01*
X278400Y195363D01*
X280350Y197313D01*
X286199Y197313D01*
X274501Y195363D02*
X272551Y197313D01*
X268652Y197313D01*
X266702Y195363D01*
X266702Y193414D01*
X268652Y191464D01*
X266702Y189514D01*
X266702Y187565D01*
X268652Y185615D01*
X272551Y185615D01*
X274501Y187565D01*
X274501Y189514D01*
X272551Y191464D01*
X274501Y193414D01*
X274501Y195363D01*
X272551Y191464D02*
X268652Y191464D01*
D10*
X345800Y178100D02*
X345800Y152100D01*
X390800Y152100D01*
X390801Y152100D02*
X391121Y151920D01*
X391446Y151748D01*
X391775Y151584D01*
X392108Y151428D01*
X392445Y151281D01*
X392785Y151141D01*
X393129Y151010D01*
X393475Y150887D01*
X393825Y150773D01*
X394177Y150668D01*
X394532Y150571D01*
X394889Y150483D01*
X395248Y150404D01*
X395609Y150333D01*
X395971Y150272D01*
X396335Y150219D01*
X396700Y150175D01*
X397066Y150140D01*
X397433Y150114D01*
X397800Y150098D01*
X398168Y150090D01*
X398536Y150091D01*
X398903Y150101D01*
X399271Y150120D01*
X399637Y150148D01*
X400003Y150185D01*
X400368Y150231D01*
X400731Y150286D01*
X401093Y150350D01*
X401454Y150423D01*
X401812Y150504D01*
X402169Y150595D01*
X402523Y150694D01*
X402875Y150801D01*
X403224Y150917D01*
X403569Y151042D01*
X403912Y151175D01*
X404252Y151317D01*
X404587Y151466D01*
X404919Y151624D01*
X405247Y151790D01*
X405571Y151964D01*
X405891Y152146D01*
X406206Y152336D01*
X406516Y152533D01*
X406822Y152738D01*
X407122Y152950D01*
X407417Y153170D01*
X407706Y153397D01*
X407990Y153631D01*
X408268Y153871D01*
X408540Y154119D01*
X408806Y154372D01*
X409066Y154633D01*
X409319Y154900D01*
X409565Y155172D01*
X409805Y155451D01*
X410038Y155736D01*
X410264Y156026D01*
X410482Y156321D01*
X410694Y156622D01*
X410898Y156928D01*
X411094Y157239D01*
X411283Y157555D01*
X411464Y157875D01*
X411637Y158199D01*
X411802Y158528D01*
X411959Y158860D01*
X412107Y159197D01*
X412248Y159536D01*
X412380Y159880D01*
X412504Y160226D01*
X412619Y160575D01*
X412725Y160927D01*
X412823Y161282D01*
X412912Y161638D01*
X412993Y161997D01*
X413064Y162358D01*
X413127Y162720D01*
X413181Y163084D01*
X413226Y163449D01*
X413262Y163815D01*
X413289Y164181D01*
X413307Y164549D01*
X413316Y164916D01*
X413316Y165284D01*
X413307Y165651D01*
X413289Y166019D01*
X413262Y166385D01*
X413226Y166751D01*
X413181Y167116D01*
X413127Y167480D01*
X413064Y167842D01*
X412993Y168203D01*
X412912Y168562D01*
X412823Y168918D01*
X412725Y169273D01*
X412619Y169625D01*
X412504Y169974D01*
X412380Y170320D01*
X412248Y170664D01*
X412107Y171003D01*
X411959Y171340D01*
X411802Y171672D01*
X411637Y172001D01*
X411464Y172325D01*
X411283Y172645D01*
X411094Y172961D01*
X410898Y173272D01*
X410694Y173578D01*
X410482Y173879D01*
X410264Y174174D01*
X410038Y174464D01*
X409805Y174749D01*
X409565Y175028D01*
X409319Y175300D01*
X409066Y175567D01*
X408806Y175828D01*
X408540Y176081D01*
X408268Y176329D01*
X407990Y176569D01*
X407706Y176803D01*
X407417Y177030D01*
X407122Y177250D01*
X406822Y177462D01*
X406516Y177667D01*
X406206Y177864D01*
X405891Y178054D01*
X405571Y178236D01*
X405247Y178410D01*
X404919Y178576D01*
X404587Y178734D01*
X404252Y178883D01*
X403912Y179025D01*
X403569Y179158D01*
X403224Y179283D01*
X402875Y179399D01*
X402523Y179506D01*
X402169Y179605D01*
X401812Y179696D01*
X401454Y179777D01*
X401093Y179850D01*
X400731Y179914D01*
X400368Y179969D01*
X400003Y180015D01*
X399637Y180052D01*
X399271Y180080D01*
X398903Y180099D01*
X398536Y180109D01*
X398168Y180110D01*
X397800Y180102D01*
X397433Y180086D01*
X397066Y180060D01*
X396700Y180025D01*
X396335Y179981D01*
X395971Y179928D01*
X395609Y179867D01*
X395248Y179796D01*
X394889Y179717D01*
X394532Y179629D01*
X394177Y179532D01*
X393825Y179427D01*
X393475Y179313D01*
X393129Y179190D01*
X392785Y179059D01*
X392445Y178919D01*
X392108Y178772D01*
X391775Y178616D01*
X391446Y178452D01*
X391121Y178280D01*
X390801Y178100D01*
X390800Y178100D02*
X345800Y178100D01*
D12*
X418953Y167305D02*
X422856Y163402D01*
X418953Y167305D02*
X418953Y155597D01*
X422856Y155597D02*
X415050Y155597D01*
X387799Y185615D02*
X387799Y197313D01*
X387799Y185615D02*
X381950Y185615D01*
X380000Y187565D01*
X380000Y195363D01*
X381950Y197313D01*
X387799Y197313D01*
X376101Y187565D02*
X374151Y185615D01*
X370252Y185615D01*
X368302Y187565D01*
X368302Y195363D01*
X370252Y197313D01*
X374151Y197313D01*
X376101Y195363D01*
X376101Y193414D01*
X374151Y191464D01*
X368302Y191464D01*
D13*
X264880Y88000D02*
X264880Y39000D01*
X264880Y88000D02*
X243120Y88000D01*
X243120Y39000D01*
X264880Y39000D01*
D16*
X257380Y80500D03*
D17*
X295530Y82550D03*
D14*
X300149Y101922D02*
X300149Y109627D01*
X300149Y101922D02*
X298608Y100381D01*
X295526Y100381D01*
X293985Y101922D01*
X293985Y109627D01*
X287859Y108086D02*
X284777Y109627D01*
X287859Y108086D02*
X290941Y105004D01*
X290941Y101922D01*
X289400Y100381D01*
X286318Y100381D01*
X284777Y101922D01*
X284777Y103463D01*
X286318Y105004D01*
X290941Y105004D01*
D11*
X51150Y228902D02*
X50401Y229651D01*
X51150Y228902D02*
X51150Y227403D01*
X50401Y226654D01*
X47403Y226654D01*
X46654Y227403D01*
X46654Y228902D01*
X47403Y229651D01*
X46654Y231258D02*
X46654Y234255D01*
X46654Y231258D02*
X49651Y234255D01*
X50401Y234255D01*
X51150Y233506D01*
X51150Y232007D01*
X50401Y231258D01*
X50401Y237360D02*
X51150Y238859D01*
X50401Y237360D02*
X48902Y235862D01*
X47403Y235862D01*
X46654Y236611D01*
X46654Y238110D01*
X47403Y238859D01*
X48153Y238859D01*
X48902Y238110D01*
X48902Y235862D01*
X28801Y226654D02*
X25803Y226654D01*
X28801Y226654D02*
X29550Y227403D01*
X29550Y228902D01*
X28801Y229651D01*
X25803Y229651D01*
X25054Y228902D01*
X25054Y227403D01*
X25803Y226654D01*
X28801Y229651D01*
X28801Y232757D02*
X29550Y234255D01*
X28801Y232757D02*
X27302Y231258D01*
X25803Y231258D01*
X25054Y232007D01*
X25054Y233506D01*
X25803Y234255D01*
X26553Y234255D01*
X27302Y233506D01*
X27302Y231258D01*
X25803Y235862D02*
X28801Y235862D01*
X29550Y236611D01*
X29550Y238110D01*
X28801Y238859D01*
X25803Y238859D01*
X25054Y238110D01*
X25054Y236611D01*
X25803Y235862D01*
X28801Y238859D01*
X28801Y240466D02*
X29550Y241215D01*
X29550Y242714D01*
X28801Y243463D01*
X28051Y243463D01*
X27302Y242714D01*
X27302Y241964D01*
X27302Y242714D02*
X26553Y243463D01*
X25803Y243463D01*
X25054Y242714D01*
X25054Y241215D01*
X25803Y240466D01*
X28801Y245070D02*
X29550Y245819D01*
X29550Y247318D01*
X28801Y248067D01*
X28051Y248067D01*
X27302Y247318D01*
X27302Y246568D01*
X27302Y247318D02*
X26553Y248067D01*
X25803Y248067D01*
X25054Y247318D01*
X25054Y245819D01*
X25803Y245070D01*
X29550Y251921D02*
X28801Y252671D01*
X29550Y251921D02*
X29550Y250423D01*
X28801Y249674D01*
X25803Y249674D01*
X25054Y250423D01*
X25054Y251921D01*
X25803Y252671D01*
X27302Y252671D01*
X27302Y251172D01*
X28051Y254277D02*
X29550Y255776D01*
X25054Y255776D01*
X25054Y254277D02*
X25054Y257275D01*
X25803Y258881D02*
X28801Y258881D01*
X29550Y259631D01*
X29550Y261129D01*
X28801Y261879D01*
X25803Y261879D01*
X25054Y261129D01*
X25054Y259631D01*
X25803Y258881D01*
X28801Y261879D01*
X29550Y265733D02*
X25054Y265733D01*
X27302Y263485D02*
X29550Y265733D01*
X27302Y266482D02*
X27302Y263485D01*
X29550Y268089D02*
X29550Y271086D01*
X28801Y271086D01*
X25803Y268089D01*
X25054Y268089D01*
X25054Y271086D01*
X25054Y272693D02*
X28051Y272693D01*
X29550Y274192D01*
X28051Y275690D01*
X25054Y275690D01*
X27302Y275690D02*
X27302Y272693D01*
X25054Y278796D02*
X29550Y278796D01*
X29550Y280294D02*
X29550Y277297D01*
X25054Y281901D02*
X25054Y284898D01*
X25054Y281901D02*
X28051Y284898D01*
X28801Y284898D01*
X29550Y284149D01*
X29550Y282650D01*
X28801Y281901D01*
X28051Y286505D02*
X25054Y286505D01*
X28051Y286505D02*
X29550Y288003D01*
X28051Y289502D01*
X25054Y289502D01*
X27302Y289502D02*
X27302Y286505D01*
D10*
X83900Y157200D02*
X93900Y157200D01*
X93900Y147600D02*
X83900Y147600D01*
D11*
X99511Y160014D02*
X99511Y164517D01*
X97259Y164517D01*
X96509Y163766D01*
X96509Y162265D01*
X97259Y161515D01*
X99511Y161515D01*
X98010Y161515D02*
X96509Y160014D01*
X94901Y164517D02*
X91899Y164517D01*
X94901Y164517D02*
X94901Y162265D01*
X93400Y163016D01*
X92649Y163016D01*
X91899Y162265D01*
X91899Y160765D01*
X92649Y160014D01*
X94150Y160014D01*
X94901Y160765D01*
X99524Y144580D02*
X99524Y140071D01*
X99524Y144580D02*
X97270Y144580D01*
X96518Y143829D01*
X96518Y142326D01*
X97270Y141574D01*
X99524Y141574D01*
X98021Y141574D02*
X96518Y140071D01*
X94908Y140071D02*
X94908Y144580D01*
X93405Y143077D01*
X91902Y144580D01*
X91902Y140071D01*
X88038Y144580D02*
X87287Y143829D01*
X88038Y144580D02*
X89541Y144580D01*
X90292Y143829D01*
X90292Y140823D01*
X89541Y140071D01*
X88038Y140071D01*
X87287Y140823D01*
X85677Y140071D02*
X85677Y144580D01*
X82671Y144580D01*
X84174Y142326D02*
X85677Y142326D01*
X81061Y140823D02*
X81061Y143829D01*
X80309Y144580D01*
X78806Y144580D01*
X78055Y143829D01*
X78055Y140823D01*
X78806Y140071D01*
X80309Y140071D01*
X81061Y140823D01*
X78055Y143829D01*
X74190Y144580D02*
X74190Y140071D01*
X76445Y142326D02*
X74190Y144580D01*
X73439Y142326D02*
X76445Y142326D01*
X71829Y140823D02*
X71829Y143829D01*
X71077Y144580D01*
X69574Y144580D01*
X68823Y143829D01*
X68823Y140823D01*
X69574Y140071D01*
X71077Y140071D01*
X71829Y140823D01*
X68823Y143829D01*
X67213Y140071D02*
X64207Y140071D01*
X67213Y140071D02*
X64207Y143077D01*
X64207Y143829D01*
X64958Y144580D01*
X66461Y144580D01*
X67213Y143829D01*
X62597Y144580D02*
X59591Y144580D01*
X59591Y143829D01*
X62597Y140823D01*
X62597Y140071D01*
X59591Y140071D01*
X56478Y140071D02*
X56478Y144580D01*
X57981Y144580D02*
X54975Y144580D01*
X53365Y143829D02*
X53365Y140823D01*
X53365Y143829D02*
X52613Y144580D01*
X51111Y144580D01*
X50359Y143829D01*
X50359Y140823D01*
X51111Y140071D01*
X52613Y140071D01*
X53365Y140823D01*
X50359Y143829D01*
X48749Y144580D02*
X48749Y140071D01*
X48749Y144580D02*
X46495Y144580D01*
X45743Y143829D01*
X45743Y142326D01*
X46495Y141574D01*
X48749Y141574D01*
X47246Y141574D02*
X45743Y140071D01*
X44133Y140823D02*
X44133Y143829D01*
X43382Y144580D01*
X41879Y144580D01*
X41127Y143829D01*
X41127Y140823D01*
X41879Y140071D01*
X43382Y140071D01*
X44133Y140823D01*
X41127Y143829D01*
X39517Y143829D02*
X39517Y140823D01*
X39517Y143829D02*
X38766Y144580D01*
X37263Y144580D01*
X36511Y143829D01*
X36511Y140823D01*
X37263Y140071D01*
X38766Y140071D01*
X39517Y140823D01*
X36511Y143829D01*
D10*
X83900Y182600D02*
X93900Y182600D01*
X93900Y173000D02*
X83900Y173000D01*
D11*
X99511Y185414D02*
X99511Y189917D01*
X97259Y189917D01*
X96509Y189166D01*
X96509Y187665D01*
X97259Y186915D01*
X99511Y186915D01*
X98010Y186915D02*
X96509Y185414D01*
X93400Y189166D02*
X91899Y189917D01*
X93400Y189166D02*
X94901Y187665D01*
X94901Y186165D01*
X94150Y185414D01*
X92649Y185414D01*
X91899Y186165D01*
X91899Y186915D01*
X92649Y187665D01*
X94901Y187665D01*
X99524Y169980D02*
X99524Y165471D01*
X99524Y169980D02*
X97270Y169980D01*
X96518Y169229D01*
X96518Y167726D01*
X97270Y166974D01*
X99524Y166974D01*
X98021Y166974D02*
X96518Y165471D01*
X94908Y165471D02*
X94908Y169980D01*
X93405Y168477D01*
X91902Y169980D01*
X91902Y165471D01*
X88038Y169980D02*
X87287Y169229D01*
X88038Y169980D02*
X89541Y169980D01*
X90292Y169229D01*
X90292Y166223D01*
X89541Y165471D01*
X88038Y165471D01*
X87287Y166223D01*
X85677Y165471D02*
X85677Y169980D01*
X82671Y169980D01*
X84174Y167726D02*
X85677Y167726D01*
X81061Y166223D02*
X81061Y169229D01*
X80309Y169980D01*
X78806Y169980D01*
X78055Y169229D01*
X78055Y166223D01*
X78806Y165471D01*
X80309Y165471D01*
X81061Y166223D01*
X78055Y169229D01*
X74190Y169980D02*
X74190Y165471D01*
X76445Y167726D02*
X74190Y169980D01*
X73439Y167726D02*
X76445Y167726D01*
X71829Y166223D02*
X71829Y169229D01*
X71077Y169980D01*
X69574Y169980D01*
X68823Y169229D01*
X68823Y166223D01*
X69574Y165471D01*
X71077Y165471D01*
X71829Y166223D01*
X68823Y169229D01*
X67213Y165471D02*
X64207Y165471D01*
X67213Y165471D02*
X64207Y168477D01*
X64207Y169229D01*
X64958Y169980D01*
X66461Y169980D01*
X67213Y169229D01*
X62597Y169980D02*
X59591Y169980D01*
X59591Y169229D01*
X62597Y166223D01*
X62597Y165471D01*
X59591Y165471D01*
X56478Y165471D02*
X56478Y169980D01*
X57981Y169980D02*
X54975Y169980D01*
X53365Y169229D02*
X53365Y166223D01*
X53365Y169229D02*
X52613Y169980D01*
X51111Y169980D01*
X50359Y169229D01*
X50359Y166223D01*
X51111Y165471D01*
X52613Y165471D01*
X53365Y166223D01*
X50359Y169229D01*
X48749Y169980D02*
X48749Y165471D01*
X48749Y169980D02*
X46495Y169980D01*
X45743Y169229D01*
X45743Y167726D01*
X46495Y166974D01*
X48749Y166974D01*
X47246Y166974D02*
X45743Y165471D01*
X44133Y166223D02*
X44133Y169229D01*
X43382Y169980D01*
X41879Y169980D01*
X41127Y169229D01*
X41127Y166223D01*
X41879Y165471D01*
X43382Y165471D01*
X44133Y166223D01*
X41127Y169229D01*
X39517Y169229D02*
X39517Y166223D01*
X39517Y169229D02*
X38766Y169980D01*
X37263Y169980D01*
X36511Y169229D01*
X36511Y166223D01*
X37263Y165471D01*
X38766Y165471D01*
X39517Y166223D01*
X36511Y169229D01*
D10*
X45800Y182600D02*
X55800Y182600D01*
X55800Y173000D02*
X45800Y173000D01*
D11*
X61411Y185414D02*
X61411Y189917D01*
X59159Y189917D01*
X58409Y189166D01*
X58409Y187665D01*
X59159Y186915D01*
X61411Y186915D01*
X59910Y186915D02*
X58409Y185414D01*
X56801Y189917D02*
X53799Y189917D01*
X53799Y189166D01*
X56801Y186165D01*
X56801Y185414D01*
X61424Y169980D02*
X61424Y165471D01*
X61424Y169980D02*
X59170Y169980D01*
X58418Y169229D01*
X58418Y167726D01*
X59170Y166974D01*
X61424Y166974D01*
X59921Y166974D02*
X58418Y165471D01*
X56808Y165471D02*
X56808Y169980D01*
X55305Y168477D01*
X53802Y169980D01*
X53802Y165471D01*
X49938Y169980D02*
X49187Y169229D01*
X49938Y169980D02*
X51441Y169980D01*
X52192Y169229D01*
X52192Y166223D01*
X51441Y165471D01*
X49938Y165471D01*
X49187Y166223D01*
X47577Y165471D02*
X47577Y169980D01*
X44571Y169980D01*
X46074Y167726D02*
X47577Y167726D01*
X42961Y166223D02*
X42961Y169229D01*
X42209Y169980D01*
X40706Y169980D01*
X39955Y169229D01*
X39955Y166223D01*
X40706Y165471D01*
X42209Y165471D01*
X42961Y166223D01*
X39955Y169229D01*
X36090Y169980D02*
X36090Y165471D01*
X38345Y167726D02*
X36090Y169980D01*
X35339Y167726D02*
X38345Y167726D01*
X33729Y166223D02*
X33729Y169229D01*
X32977Y169980D01*
X31474Y169980D01*
X30723Y169229D01*
X30723Y166223D01*
X31474Y165471D01*
X32977Y165471D01*
X33729Y166223D01*
X30723Y169229D01*
X29113Y165471D02*
X26107Y165471D01*
X29113Y165471D02*
X26107Y168477D01*
X26107Y169229D01*
X26858Y169980D01*
X28361Y169980D01*
X29113Y169229D01*
X24497Y169980D02*
X21491Y169980D01*
X21491Y169229D01*
X24497Y166223D01*
X24497Y165471D01*
X21491Y165471D01*
X18378Y165471D02*
X18378Y169980D01*
X19881Y169980D02*
X16875Y169980D01*
X15265Y169229D02*
X15265Y166223D01*
X15265Y169229D02*
X14513Y169980D01*
X13011Y169980D01*
X12259Y169229D01*
X12259Y166223D01*
X13011Y165471D01*
X14513Y165471D01*
X15265Y166223D01*
X12259Y169229D01*
X10649Y169980D02*
X10649Y165471D01*
X10649Y169980D02*
X8395Y169980D01*
X7643Y169229D01*
X7643Y167726D01*
X8395Y166974D01*
X10649Y166974D01*
X9146Y166974D02*
X7643Y165471D01*
X6033Y166223D02*
X6033Y169229D01*
X5282Y169980D01*
X3779Y169980D01*
X3027Y169229D01*
X3027Y166223D01*
X3779Y165471D01*
X5282Y165471D01*
X6033Y166223D01*
X3027Y169229D01*
X1417Y169229D02*
X1417Y166223D01*
X1417Y169229D02*
X666Y169980D01*
X-837Y169980D01*
X-1589Y169229D01*
X-1589Y166223D01*
X-837Y165471D01*
X666Y165471D01*
X1417Y166223D01*
X-1589Y169229D01*
D10*
X45800Y157200D02*
X55800Y157200D01*
X55800Y147600D02*
X45800Y147600D01*
D11*
X61411Y160014D02*
X61411Y164517D01*
X59159Y164517D01*
X58409Y163766D01*
X58409Y162265D01*
X59159Y161515D01*
X61411Y161515D01*
X59910Y161515D02*
X58409Y160014D01*
X56801Y163766D02*
X56050Y164517D01*
X54549Y164517D01*
X53799Y163766D01*
X53799Y163016D01*
X54549Y162265D01*
X53799Y161515D01*
X53799Y160765D01*
X54549Y160014D01*
X56050Y160014D01*
X56801Y160765D01*
X56801Y161515D01*
X56050Y162265D01*
X56801Y163016D01*
X56801Y163766D01*
X56050Y162265D02*
X54549Y162265D01*
X61424Y144580D02*
X61424Y140071D01*
X61424Y144580D02*
X59170Y144580D01*
X58418Y143829D01*
X58418Y142326D01*
X59170Y141574D01*
X61424Y141574D01*
X59921Y141574D02*
X58418Y140071D01*
X56808Y140071D02*
X56808Y144580D01*
X55305Y143077D01*
X53802Y144580D01*
X53802Y140071D01*
X49938Y144580D02*
X49187Y143829D01*
X49938Y144580D02*
X51441Y144580D01*
X52192Y143829D01*
X52192Y140823D01*
X51441Y140071D01*
X49938Y140071D01*
X49187Y140823D01*
X47577Y140071D02*
X47577Y144580D01*
X44571Y144580D01*
X46074Y142326D02*
X47577Y142326D01*
X42961Y140823D02*
X42961Y143829D01*
X42209Y144580D01*
X40706Y144580D01*
X39955Y143829D01*
X39955Y140823D01*
X40706Y140071D01*
X42209Y140071D01*
X42961Y140823D01*
X39955Y143829D01*
X36090Y144580D02*
X36090Y140071D01*
X38345Y142326D02*
X36090Y144580D01*
X35339Y142326D02*
X38345Y142326D01*
X33729Y140823D02*
X33729Y143829D01*
X32977Y144580D01*
X31474Y144580D01*
X30723Y143829D01*
X30723Y140823D01*
X31474Y140071D01*
X32977Y140071D01*
X33729Y140823D01*
X30723Y143829D01*
X29113Y140071D02*
X26107Y140071D01*
X29113Y140071D02*
X26107Y143077D01*
X26107Y143829D01*
X26858Y144580D01*
X28361Y144580D01*
X29113Y143829D01*
X24497Y144580D02*
X21491Y144580D01*
X21491Y143829D01*
X24497Y140823D01*
X24497Y140071D01*
X21491Y140071D01*
X18378Y140071D02*
X18378Y144580D01*
X19881Y144580D02*
X16875Y144580D01*
X15265Y143829D02*
X15265Y140823D01*
X15265Y143829D02*
X14513Y144580D01*
X13011Y144580D01*
X12259Y143829D01*
X12259Y140823D01*
X13011Y140071D01*
X14513Y140071D01*
X15265Y140823D01*
X12259Y143829D01*
X10649Y144580D02*
X10649Y140071D01*
X10649Y144580D02*
X8395Y144580D01*
X7643Y143829D01*
X7643Y142326D01*
X8395Y141574D01*
X10649Y141574D01*
X9146Y141574D02*
X7643Y140071D01*
X6033Y140823D02*
X6033Y143829D01*
X5282Y144580D01*
X3779Y144580D01*
X3027Y143829D01*
X3027Y140823D01*
X3779Y140071D01*
X5282Y140071D01*
X6033Y140823D01*
X3027Y143829D01*
X1417Y143829D02*
X1417Y140823D01*
X1417Y143829D02*
X666Y144580D01*
X-837Y144580D01*
X-1589Y143829D01*
X-1589Y140823D01*
X-837Y140071D01*
X666Y140071D01*
X1417Y140823D01*
X-1589Y143829D01*
D10*
X45800Y131800D02*
X55800Y131800D01*
X55800Y122200D02*
X45800Y122200D01*
D11*
X48711Y134614D02*
X48711Y139117D01*
X46459Y139117D01*
X45709Y138366D01*
X45709Y136865D01*
X46459Y136115D01*
X48711Y136115D01*
X47210Y136115D02*
X45709Y134614D01*
X44101Y135365D02*
X43350Y134614D01*
X41849Y134614D01*
X41099Y135365D01*
X41099Y138366D01*
X41849Y139117D01*
X43350Y139117D01*
X44101Y138366D01*
X44101Y137616D01*
X43350Y136865D01*
X41099Y136865D01*
X61424Y119180D02*
X61424Y114671D01*
X61424Y119180D02*
X59170Y119180D01*
X58418Y118429D01*
X58418Y116926D01*
X59170Y116174D01*
X61424Y116174D01*
X59921Y116174D02*
X58418Y114671D01*
X56808Y114671D02*
X56808Y119180D01*
X55305Y117677D01*
X53802Y119180D01*
X53802Y114671D01*
X49938Y119180D02*
X49187Y118429D01*
X49938Y119180D02*
X51441Y119180D01*
X52192Y118429D01*
X52192Y115423D01*
X51441Y114671D01*
X49938Y114671D01*
X49187Y115423D01*
X47577Y114671D02*
X47577Y119180D01*
X44571Y119180D01*
X46074Y116926D02*
X47577Y116926D01*
X42961Y115423D02*
X42961Y118429D01*
X42209Y119180D01*
X40706Y119180D01*
X39955Y118429D01*
X39955Y115423D01*
X40706Y114671D01*
X42209Y114671D01*
X42961Y115423D01*
X39955Y118429D01*
X36090Y119180D02*
X36090Y114671D01*
X38345Y116926D02*
X36090Y119180D01*
X35339Y116926D02*
X38345Y116926D01*
X33729Y115423D02*
X33729Y118429D01*
X32977Y119180D01*
X31474Y119180D01*
X30723Y118429D01*
X30723Y115423D01*
X31474Y114671D01*
X32977Y114671D01*
X33729Y115423D01*
X30723Y118429D01*
X29113Y114671D02*
X26107Y114671D01*
X29113Y114671D02*
X26107Y117677D01*
X26107Y118429D01*
X26858Y119180D01*
X28361Y119180D01*
X29113Y118429D01*
X24497Y119180D02*
X21491Y119180D01*
X21491Y118429D01*
X24497Y115423D01*
X24497Y114671D01*
X21491Y114671D01*
X18378Y114671D02*
X18378Y119180D01*
X19881Y119180D02*
X16875Y119180D01*
X15265Y118429D02*
X15265Y115423D01*
X15265Y118429D02*
X14513Y119180D01*
X13011Y119180D01*
X12259Y118429D01*
X12259Y115423D01*
X13011Y114671D01*
X14513Y114671D01*
X15265Y115423D01*
X12259Y118429D01*
X10649Y119180D02*
X10649Y114671D01*
X10649Y119180D02*
X8395Y119180D01*
X7643Y118429D01*
X7643Y116926D01*
X8395Y116174D01*
X10649Y116174D01*
X9146Y116174D02*
X7643Y114671D01*
X6033Y115423D02*
X6033Y118429D01*
X5282Y119180D01*
X3779Y119180D01*
X3027Y118429D01*
X3027Y115423D01*
X3779Y114671D01*
X5282Y114671D01*
X6033Y115423D01*
X3027Y118429D01*
X1417Y118429D02*
X1417Y115423D01*
X1417Y118429D02*
X666Y119180D01*
X-837Y119180D01*
X-1589Y118429D01*
X-1589Y115423D01*
X-837Y114671D01*
X666Y114671D01*
X1417Y115423D01*
X-1589Y118429D01*
M02*
